<?xml version="1.0" encoding="UTF-8" standalone="no"?><svg xmlns="http://www.w3.org/2000/svg" xmlns:xlink="http://www.w3.org/1999/xlink" contentStyleType="text/css" height="370px" preserveAspectRatio="none" style="width:789px;height:370px;background:#FFFFFF;" version="1.1" viewBox="0 0 789 370" width="789px" zoomAndPan="magnify"><defs/><g><!--MD5=[6d9619ef98b074b90a2088c58bfec945]
class ワークスペース--><g id="elem_ワークスペース"><rect codeLine="8" fill="#F1F1F1" height="80.9766" id="ワークスペース" rx="2.5" ry="2.5" style="stroke:#181818;stroke-width:0.5;" width="138" x="7" y="172.5"/><ellipse cx="25.6" cy="188.5" fill="#ADD1B2" rx="11" ry="11" style="stroke:#181818;stroke-width:1.0;"/><path d="M29.2143,195 L21.4945,195 L21.4945,182.6069 L29.2143,182.6069 L29.2143,184.7651 L23.9433,184.7651 L23.9433,187.438 L28.7162,187.438 L28.7162,189.5962 L23.9433,189.5962 L23.9433,192.8418 L29.2143,192.8418 Z " fill="#000000"/><text fill="#000000" font-family="sans-serif" font-size="14" lengthAdjust="spacing" textLength="98" x="40.4" y="193.791">ワークスペース</text><line style="stroke:#181818;stroke-width:0.5;" x1="8" x2="144" y1="204.5" y2="204.5"/><ellipse cx="18" cy="215.5" fill="#000000" rx="3" ry="3" style="stroke:#000000;stroke-width:1.0;"/><text fill="#000000" font-family="sans-serif" font-size="14" lengthAdjust="spacing" textLength="14" x="27" y="222.0352">ID</text><line style="stroke:#181818;stroke-width:1.0;" x1="8" x2="144" y1="228.9883" y2="228.9883"/><ellipse cx="18" cy="239.9883" fill="#000000" rx="3" ry="3" style="stroke:#000000;stroke-width:1.0;"/><text fill="#000000" font-family="sans-serif" font-size="14" lengthAdjust="spacing" textLength="112" x="27" y="246.5234">ワークスペース名</text></g><!--MD5=[241f436a9c064b49cd9b245a98aa7802]
class チャネル--><g id="elem_チャネル"><rect codeLine="14" fill="#F1F1F1" height="97.4648" id="チャネル" rx="2.5" ry="2.5" style="stroke:#181818;stroke-width:0.5;" width="138" x="180" y="164.5"/><ellipse cx="217.5" cy="180.5" fill="#ADD1B2" rx="11" ry="11" style="stroke:#181818;stroke-width:1.0;"/><path d="M221.1143,187 L213.3945,187 L213.3945,174.6069 L221.1143,174.6069 L221.1143,176.7651 L215.8433,176.7651 L215.8433,179.438 L220.6162,179.438 L220.6162,181.5962 L215.8433,181.5962 L215.8433,184.8418 L221.1143,184.8418 Z " fill="#000000"/><text fill="#000000" font-family="sans-serif" font-size="14" lengthAdjust="spacing" textLength="56" x="236.5" y="185.791">チャネル</text><line style="stroke:#181818;stroke-width:0.5;" x1="181" x2="317" y1="196.5" y2="196.5"/><ellipse cx="191" cy="207.5" fill="#000000" rx="3" ry="3" style="stroke:#000000;stroke-width:1.0;"/><text fill="#000000" font-family="sans-serif" font-size="14" lengthAdjust="spacing" textLength="14" x="200" y="214.0352">ID</text><line style="stroke:#181818;stroke-width:1.0;" x1="181" x2="317" y1="220.9883" y2="220.9883"/><ellipse cx="191" cy="231.9883" fill="#000000" rx="3" ry="3" style="stroke:#000000;stroke-width:1.0;"/><text fill="#000000" font-family="sans-serif" font-size="14" lengthAdjust="spacing" textLength="112" x="200" y="238.5234">ワークスペースID</text><ellipse cx="191" cy="248.4766" fill="#000000" rx="3" ry="3" style="stroke:#000000;stroke-width:1.0;"/><text fill="#000000" font-family="sans-serif" font-size="14" lengthAdjust="spacing" textLength="70" x="200" y="255.0117">チャネル名</text></g><!--MD5=[f30c654166262c61ba08993d19e88f02]
class メッセージ--><g id="elem_メッセージ"><rect codeLine="21" fill="#F1F1F1" height="130.4414" id="メッセージ" rx="2.5" ry="2.5" style="stroke:#181818;stroke-width:0.5;" width="152" x="353" y="148"/><ellipse cx="390.5" cy="164" fill="#ADD1B2" rx="11" ry="11" style="stroke:#181818;stroke-width:1.0;"/><path d="M394.1143,170.5 L386.3945,170.5 L386.3945,158.1069 L394.1143,158.1069 L394.1143,160.2651 L388.8433,160.2651 L388.8433,162.938 L393.6162,162.938 L393.6162,165.0962 L388.8433,165.0962 L388.8433,168.3418 L394.1143,168.3418 Z " fill="#000000"/><text fill="#000000" font-family="sans-serif" font-size="14" lengthAdjust="spacing" textLength="70" x="409.5" y="169.291">メッセージ</text><line style="stroke:#181818;stroke-width:0.5;" x1="354" x2="504" y1="180" y2="180"/><ellipse cx="364" cy="191" fill="#000000" rx="3" ry="3" style="stroke:#000000;stroke-width:1.0;"/><text fill="#000000" font-family="sans-serif" font-size="14" lengthAdjust="spacing" textLength="14" x="373" y="197.5352">ID</text><line style="stroke:#181818;stroke-width:1.0;" x1="354" x2="504" y1="204.4883" y2="204.4883"/><ellipse cx="364" cy="215.4883" fill="#000000" rx="3" ry="3" style="stroke:#000000;stroke-width:1.0;"/><text fill="#000000" font-family="sans-serif" font-size="14" lengthAdjust="spacing" textLength="70" x="373" y="222.0234">ユーザーID</text><ellipse cx="364" cy="231.9766" fill="#000000" rx="3" ry="3" style="stroke:#000000;stroke-width:1.0;"/><text fill="#000000" font-family="sans-serif" font-size="14" lengthAdjust="spacing" textLength="70" x="373" y="238.5117">チャネルID</text><ellipse cx="364" cy="248.4648" fill="#000000" rx="3" ry="3" style="stroke:#000000;stroke-width:1.0;"/><text fill="#000000" font-family="sans-serif" font-size="14" lengthAdjust="spacing" textLength="28" x="373" y="255">本文</text><ellipse cx="364" cy="264.9531" fill="#000000" rx="3" ry="3" style="stroke:#000000;stroke-width:1.0;"/><text fill="#000000" font-family="sans-serif" font-size="14" lengthAdjust="spacing" textLength="126" x="373" y="271.4883">親メッセージフラグ</text></g><!--MD5=[8585101775faaaf9edd267281d82651d]
class スレッド--><g id="elem_スレッド"><rect codeLine="30" fill="#F1F1F1" height="97.4648" id="スレッド" rx="2.5" ry="2.5" style="stroke:#181818;stroke-width:0.5;" width="124" x="540" y="164.5"/><ellipse cx="571.2" cy="180.5" fill="#ADD1B2" rx="11" ry="11" style="stroke:#181818;stroke-width:1.0;"/><path d="M574.8143,187 L567.0945,187 L567.0945,174.6069 L574.8143,174.6069 L574.8143,176.7651 L569.5433,176.7651 L569.5433,179.438 L574.3162,179.438 L574.3162,181.5962 L569.5433,181.5962 L569.5433,184.8418 L574.8143,184.8418 Z " fill="#000000"/><text fill="#000000" font-family="sans-serif" font-size="14" lengthAdjust="spacing" textLength="56" x="588.8" y="185.791">スレッド</text><line style="stroke:#181818;stroke-width:0.5;" x1="541" x2="663" y1="196.5" y2="196.5"/><ellipse cx="551" cy="207.5" fill="#000000" rx="3" ry="3" style="stroke:#000000;stroke-width:1.0;"/><text fill="#000000" font-family="sans-serif" font-size="14" lengthAdjust="spacing" textLength="14" x="560" y="214.0352">ID</text><line style="stroke:#181818;stroke-width:1.0;" x1="541" x2="663" y1="220.9883" y2="220.9883"/><ellipse cx="551" cy="231.9883" fill="#000000" rx="3" ry="3" style="stroke:#000000;stroke-width:1.0;"/><text fill="#000000" font-family="sans-serif" font-size="14" lengthAdjust="spacing" textLength="98" x="560" y="238.5234">親メッセージID</text><ellipse cx="551" cy="248.4766" fill="#000000" rx="3" ry="3" style="stroke:#000000;stroke-width:1.0;"/><text fill="#000000" font-family="sans-serif" font-size="14" lengthAdjust="spacing" textLength="98" x="560" y="255.0117">子メッセージID</text></g><!--MD5=[e6c131967da0181654129b9ee700e883]
class ユーザー--><g id="elem_ユーザー"><rect codeLine="38" fill="#F1F1F1" height="80.9766" id="ユーザー" rx="2.5" ry="2.5" style="stroke:#181818;stroke-width:0.5;" width="88" x="295" y="7"/><ellipse cx="310" cy="23" fill="#ADD1B2" rx="11" ry="11" style="stroke:#181818;stroke-width:1.0;"/><path d="M313.6143,29.5 L305.8945,29.5 L305.8945,17.1069 L313.6143,17.1069 L313.6143,19.2651 L308.3433,19.2651 L308.3433,21.938 L313.1162,21.938 L313.1162,24.0962 L308.3433,24.0962 L308.3433,27.3418 L313.6143,27.3418 Z " fill="#000000"/><text fill="#000000" font-family="sans-serif" font-size="14" lengthAdjust="spacing" textLength="56" x="324" y="28.291">ユーザー</text><line style="stroke:#181818;stroke-width:0.5;" x1="296" x2="382" y1="39" y2="39"/><ellipse cx="306" cy="50" fill="#000000" rx="3" ry="3" style="stroke:#000000;stroke-width:1.0;"/><text fill="#000000" font-family="sans-serif" font-size="14" lengthAdjust="spacing" textLength="14" x="315" y="56.5352">ID</text><line style="stroke:#181818;stroke-width:1.0;" x1="296" x2="382" y1="63.4883" y2="63.4883"/><ellipse cx="306" cy="74.4883" fill="#000000" rx="3" ry="3" style="stroke:#000000;stroke-width:1.0;"/><text fill="#000000" font-family="sans-serif" font-size="14" lengthAdjust="spacing" textLength="42" x="315" y="81.0234">表示名</text></g><g id="elem_GMN14"><path d="M422,338 L422,363.3105 A0,0 0 0 0 422,363.3105 L782,363.3105 A0,0 0 0 0 782,363.3105 L782,348 L772,338 L606,338 L602,261.86 L598,338 L422,338 A0,0 0 0 0 422,338 " fill="#FEFFDD" style="stroke:#181818;stroke-width:0.5;"/><path d="M772,338 L772,348 L782,348 L772,338 " fill="#FEFFDD" style="stroke:#181818;stroke-width:0.5;"/><text fill="#000000" font-family="sans-serif" font-size="13" lengthAdjust="spacing" textLength="339" x="428" y="355.5684">スレッドの一番初めのメッセージを親メッセージIDとする</text></g><!--MD5=[bbc448de9f2c723d6671e10fbe50ccd5]
link ワークスペース to チャネル--><g id="link_ワークスペース_チャネル"><path codeLine="44" d="M153.37,213 C153.37,213 171.9,213 171.9,213 " fill="none" id="ワークスペース-チャネル" style="stroke:#181818;stroke-width:1.0;stroke-dasharray:7.0,7.0;"/><line style="stroke:#181818;stroke-width:1.0;" x1="171.9" x2="179.9" y1="213" y2="207"/><line style="stroke:#181818;stroke-width:1.0;" x1="171.9" x2="179.9" y1="213" y2="219"/><line style="stroke:#181818;stroke-width:1.0;" x1="171.9" x2="179.9" y1="213" y2="213"/><ellipse cx="165.9" cy="213" fill="none" rx="4" ry="4" style="stroke:#181818;stroke-width:1.0;"/><line style="stroke:#181818;stroke-width:1.0;" x1="149.37" x2="149.37" y1="217" y2="209"/><line style="stroke:#181818;stroke-width:1.0;" x1="152.37" x2="152.37" y1="217" y2="209"/><line style="stroke:#181818;stroke-width:1.0;" x1="153.37" x2="145.37" y1="213" y2="213"/></g><!--MD5=[fdfe3e174a190d89f697b36070caca32]
link チャネル to メッセージ--><g id="link_チャネル_メッセージ"><path codeLine="45" d="M326.08,213 C326.08,213 344.92,213 344.92,213 " fill="none" id="チャネル-メッセージ" style="stroke:#181818;stroke-width:1.0;stroke-dasharray:7.0,7.0;"/><line style="stroke:#181818;stroke-width:1.0;" x1="344.92" x2="352.92" y1="213" y2="207"/><line style="stroke:#181818;stroke-width:1.0;" x1="344.92" x2="352.92" y1="213" y2="219"/><line style="stroke:#181818;stroke-width:1.0;" x1="344.92" x2="352.92" y1="213" y2="213"/><ellipse cx="338.92" cy="213" fill="none" rx="4" ry="4" style="stroke:#181818;stroke-width:1.0;"/><line style="stroke:#181818;stroke-width:1.0;" x1="322.08" x2="322.08" y1="217" y2="209"/><line style="stroke:#181818;stroke-width:1.0;" x1="325.08" x2="325.08" y1="217" y2="209"/><line style="stroke:#181818;stroke-width:1.0;" x1="326.08" x2="318.08" y1="213" y2="213"/></g><!--MD5=[9bb130718667804304e686fbc2404c71]
link メッセージ to スレッド--><g id="link_メッセージ_スレッド"><path codeLine="46" d="M513.13,213 C513.13,213 531.85,213 531.85,213 " fill="none" id="メッセージ-スレッド" style="stroke:#181818;stroke-width:1.0;stroke-dasharray:7.0,7.0;"/><line style="stroke:#181818;stroke-width:1.0;" x1="531.85" x2="539.85" y1="213" y2="207"/><line style="stroke:#181818;stroke-width:1.0;" x1="531.85" x2="539.85" y1="213" y2="219"/><line style="stroke:#181818;stroke-width:1.0;" x1="531.85" x2="539.85" y1="213" y2="213"/><ellipse cx="525.85" cy="213" fill="none" rx="4" ry="4" style="stroke:#181818;stroke-width:1.0;"/><line style="stroke:#181818;stroke-width:1.0;" x1="509.13" x2="509.13" y1="217" y2="209"/><line style="stroke:#181818;stroke-width:1.0;" x1="512.13" x2="512.13" y1="217" y2="209"/><line style="stroke:#181818;stroke-width:1.0;" x1="513.13" x2="505.13" y1="213" y2="213"/></g><!--MD5=[8076faaccfdbf5c038b1a193a6af68a1]
link ユーザー to ワークスペース--><g id="link_ユーザー_ワークスペース"><path codeLine="47" d="M286.98,48 C286.98,48 76,48 76,48 C76,48 76,164.21 76,164.21 " fill="none" id="ユーザー-ワークスペース" style="stroke:#181818;stroke-width:1.0;stroke-dasharray:7.0,7.0;"/><line style="stroke:#181818;stroke-width:1.0;" x1="76" x2="82" y1="164.21" y2="172.21"/><line style="stroke:#181818;stroke-width:1.0;" x1="76" x2="70" y1="164.21" y2="172.21"/><line style="stroke:#181818;stroke-width:1.0;" x1="76" x2="76" y1="164.21" y2="172.21"/><ellipse cx="76" cy="158.21" fill="none" rx="4" ry="4" style="stroke:#181818;stroke-width:1.0;"/><line style="stroke:#181818;stroke-width:1.0;" x1="286.98" x2="294.98" y1="48" y2="42"/><line style="stroke:#181818;stroke-width:1.0;" x1="286.98" x2="294.98" y1="48" y2="54"/><line style="stroke:#181818;stroke-width:1.0;" x1="286.98" x2="294.98" y1="48" y2="48"/><line style="stroke:#181818;stroke-width:1.0;" x1="284.98" x2="284.98" y1="44" y2="52"/></g><!--MD5=[7eddab622c37eb3f03073e5e929958b2]
link ユーザー to チャネル--><g id="link_ユーザー_チャネル"><path codeLine="48" d="M306.5,96.41 C306.5,96.41 306.5,156.32 306.5,156.32 " fill="none" id="ユーザー-チャネル" style="stroke:#181818;stroke-width:1.0;stroke-dasharray:7.0,7.0;"/><line style="stroke:#181818;stroke-width:1.0;" x1="306.5" x2="312.5" y1="156.32" y2="164.32"/><line style="stroke:#181818;stroke-width:1.0;" x1="306.5" x2="300.5" y1="156.32" y2="164.32"/><line style="stroke:#181818;stroke-width:1.0;" x1="306.5" x2="306.5" y1="156.32" y2="164.32"/><ellipse cx="306.5" cy="150.32" fill="none" rx="4" ry="4" style="stroke:#181818;stroke-width:1.0;"/><line style="stroke:#181818;stroke-width:1.0;" x1="306.5" x2="300.5" y1="96.41" y2="88.41"/><line style="stroke:#181818;stroke-width:1.0;" x1="306.5" x2="312.5" y1="96.41" y2="88.41"/><line style="stroke:#181818;stroke-width:1.0;" x1="306.5" x2="306.5" y1="96.41" y2="88.41"/><line style="stroke:#181818;stroke-width:1.0;" x1="302.5" x2="310.5" y1="98.41" y2="98.41"/></g><!--MD5=[a91f9dacf35d0ef2c1f762fafe63a845]
link ユーザー to スレッド--><g id="link_ユーザー_スレッド"><path codeLine="49" d="M391.02,48 C391.02,48 602,48 602,48 C602,48 602,156.39 602,156.39 " fill="none" id="ユーザー-スレッド" style="stroke:#181818;stroke-width:1.0;stroke-dasharray:7.0,7.0;"/><line style="stroke:#181818;stroke-width:1.0;" x1="602" x2="608" y1="156.39" y2="164.39"/><line style="stroke:#181818;stroke-width:1.0;" x1="602" x2="596" y1="156.39" y2="164.39"/><line style="stroke:#181818;stroke-width:1.0;" x1="602" x2="602" y1="156.39" y2="164.39"/><ellipse cx="602" cy="150.39" fill="none" rx="4" ry="4" style="stroke:#181818;stroke-width:1.0;"/><line style="stroke:#181818;stroke-width:1.0;" x1="387.02" x2="387.02" y1="52" y2="44"/><line style="stroke:#181818;stroke-width:1.0;" x1="390.02" x2="390.02" y1="52" y2="44"/><line style="stroke:#181818;stroke-width:1.0;" x1="391.02" x2="383.02" y1="48" y2="48"/></g><!--MD5=[5eeabae42de08c63ee46e0ceb03e9314]
link ユーザー to メッセージ--><g id="link_ユーザー_メッセージ"><path codeLine="50" d="M368,96.41 C368,96.41 368,139.77 368,139.77 " fill="none" id="ユーザー-メッセージ" style="stroke:#181818;stroke-width:1.0;stroke-dasharray:7.0,7.0;"/><line style="stroke:#181818;stroke-width:1.0;" x1="368" x2="374" y1="139.77" y2="147.77"/><line style="stroke:#181818;stroke-width:1.0;" x1="368" x2="362" y1="139.77" y2="147.77"/><line style="stroke:#181818;stroke-width:1.0;" x1="368" x2="368" y1="139.77" y2="147.77"/><ellipse cx="368" cy="133.77" fill="none" rx="4" ry="4" style="stroke:#181818;stroke-width:1.0;"/><line style="stroke:#181818;stroke-width:1.0;" x1="364" x2="372" y1="92.41" y2="92.41"/><line style="stroke:#181818;stroke-width:1.0;" x1="364" x2="372" y1="95.41" y2="95.41"/><line style="stroke:#181818;stroke-width:1.0;" x1="368" x2="368" y1="96.41" y2="88.41"/></g><!--MD5=[8852caff8adaabf758f4e0915f973cf5]
@startuml

' hide the spot
' hide circle

' avoid problems with angled crows feet
skinparam linetype ortho

entity "ワークスペース" {
    *ID
    - -
    *ワークスペース名
}

entity "チャネル" {
    *ID
    - -
    *ワークスペースID
    *チャネル名
}

entity "メッセージ" {
    *ID
    - -
    *ユーザーID
    *チャネルID
    *本文
    *親メッセージフラグ
}

entity "スレッド" {
    *ID
    - -
    *親メッセージID
    *子メッセージID
}


entity "ユーザー" {
    *ID
    - -
    *表示名
}

ワークスペース ||.r.o{ チャネル
チャネル ||.r.o{ メッセージ
メッセージ ||.r.o{ スレッド
ユーザー }|.d.o{ ワークスペース
ユーザー }|.d.o{ チャネル
ユーザー ||.d.o{ スレッド
ユーザー ||.d.o{ メッセージ

note bottom of スレッド : スレッドの一番初めのメッセージを親メッセージIDとする

@enduml

@startuml


skinparam linetype ortho

entity "ワークスペース" {
    *ID
    - -
    *ワークスペース名
}

entity "チャネル" {
    *ID
    - -
    *ワークスペースID
    *チャネル名
}

entity "メッセージ" {
    *ID
    - -
    *ユーザーID
    *チャネルID
    *本文
    *親メッセージフラグ
}

entity "スレッド" {
    *ID
    - -
    *親メッセージID
    *子メッセージID
}


entity "ユーザー" {
    *ID
    - -
    *表示名
}

ワークスペース ||.r.o{ チャネル
チャネル ||.r.o{ メッセージ
メッセージ ||.r.o{ スレッド
ユーザー }|.d.o{ ワークスペース
ユーザー }|.d.o{ チャネル
ユーザー ||.d.o{ スレッド
ユーザー ||.d.o{ メッセージ

note bottom of スレッド : スレッドの一番初めのメッセージを親メッセージIDとする

@enduml

PlantUML version 1.2022.6(Wed Jun 22 02:34:49 JST 2022)
(GPL source distribution)
Java Runtime: OpenJDK Runtime Environment
JVM: OpenJDK 64-Bit Server VM
Default Encoding: UTF-8
Language: ja
Country: JP
--></g></svg>