<?xml version="1.0" encoding="UTF-8" standalone="no"?><svg xmlns="http://www.w3.org/2000/svg" xmlns:xlink="http://www.w3.org/1999/xlink" contentStyleType="text/css" height="474px" preserveAspectRatio="none" style="width:432px;height:474px;background:#FFFFFF;" version="1.1" viewBox="0 0 432 474" width="432px" zoomAndPan="magnify"><defs/><g><!--MD5=[e6c131967da0181654129b9ee700e883]
class ユーザー--><g id="elem_ユーザー"><rect codeLine="2" fill="#F1F1F1" height="80.9766" id="ユーザー" rx="2.5" ry="2.5" style="stroke:#181818;stroke-width:0.5;" width="88" x="7" y="15"/><ellipse cx="22" cy="31" fill="#ADD1B2" rx="11" ry="11" style="stroke:#181818;stroke-width:1.0;"/><path d="M25.6143,37.5 L17.8945,37.5 L17.8945,25.1069 L25.6143,25.1069 L25.6143,27.2651 L20.3433,27.2651 L20.3433,29.938 L25.1162,29.938 L25.1162,32.0962 L20.3433,32.0962 L20.3433,35.3418 L25.6143,35.3418 Z " fill="#000000"/><text fill="#000000" font-family="sans-serif" font-size="14" lengthAdjust="spacing" textLength="56" x="36" y="36.291">ユーザー</text><line style="stroke:#181818;stroke-width:0.5;" x1="8" x2="94" y1="47" y2="47"/><ellipse cx="18" cy="58" fill="#000000" rx="3" ry="3" style="stroke:#000000;stroke-width:1.0;"/><text fill="#000000" font-family="sans-serif" font-size="14" lengthAdjust="spacing" textLength="14" x="27" y="64.5352">ID</text><line style="stroke:#181818;stroke-width:1.0;" x1="8" x2="94" y1="71.4883" y2="71.4883"/><ellipse cx="18" cy="82.4883" fill="#000000" rx="3" ry="3" style="stroke:#000000;stroke-width:1.0;"/><text fill="#000000" font-family="sans-serif" font-size="14" lengthAdjust="spacing" textLength="42" x="27" y="89.0234">表示名</text></g><!--MD5=[68b9cae357ee1e35ec1bf57d7fe5aa5e]
class オブジェクト--><g id="elem_オブジェクト"><rect codeLine="8" fill="#F1F1F1" height="97.4648" id="オブジェクト" rx="2.5" ry="2.5" style="stroke:#181818;stroke-width:0.5;" width="116" x="130" y="7"/><ellipse cx="145" cy="23" fill="#ADD1B2" rx="11" ry="11" style="stroke:#181818;stroke-width:1.0;"/><path d="M148.6143,29.5 L140.8945,29.5 L140.8945,17.1069 L148.6143,17.1069 L148.6143,19.2651 L143.3433,19.2651 L143.3433,21.938 L148.1162,21.938 L148.1162,24.0962 L143.3433,24.0962 L143.3433,27.3418 L148.6143,27.3418 Z " fill="#000000"/><text fill="#000000" font-family="sans-serif" font-size="14" lengthAdjust="spacing" textLength="84" x="159" y="28.291">オブジェクト</text><line style="stroke:#181818;stroke-width:0.5;" x1="131" x2="245" y1="39" y2="39"/><ellipse cx="141" cy="50" fill="#000000" rx="3" ry="3" style="stroke:#000000;stroke-width:1.0;"/><text fill="#000000" font-family="sans-serif" font-size="14" lengthAdjust="spacing" textLength="14" x="150" y="56.5352">ID</text><line style="stroke:#181818;stroke-width:1.0;" x1="131" x2="245" y1="63.4883" y2="63.4883"/><ellipse cx="141" cy="74.4883" fill="#000000" rx="3" ry="3" style="stroke:#000000;stroke-width:1.0;"/><text fill="#000000" font-family="sans-serif" font-size="14" lengthAdjust="spacing" textLength="84" x="150" y="81.0234">ルートフラグ</text><ellipse cx="141" cy="90.9766" fill="#000000" rx="3" ry="3" style="stroke:#000000;stroke-width:1.0;"/><text fill="#000000" font-family="sans-serif" font-size="14" lengthAdjust="spacing" textLength="56" x="150" y="97.5117">作成者ID</text></g><!--MD5=[7976941778f6fa4dada80cf03230a3f9]
class ディレクトリ--><g id="elem_ディレクトリ"><rect codeLine="15" fill="#F1F1F1" height="97.4648" id="ディレクトリ" rx="2.5" ry="2.5" style="stroke:#181818;stroke-width:0.5;" width="124" x="46" y="164"/><ellipse cx="64.6" cy="180" fill="#ADD1B2" rx="11" ry="11" style="stroke:#181818;stroke-width:1.0;"/><path d="M68.2143,186.5 L60.4945,186.5 L60.4945,174.1069 L68.2143,174.1069 L68.2143,176.2651 L62.9433,176.2651 L62.9433,178.938 L67.7162,178.938 L67.7162,181.0962 L62.9433,181.0962 L62.9433,184.3418 L68.2143,184.3418 Z " fill="#000000"/><text fill="#000000" font-family="sans-serif" font-size="14" lengthAdjust="spacing" textLength="84" x="79.4" y="185.291">ディレクトリ</text><line style="stroke:#181818;stroke-width:0.5;" x1="47" x2="169" y1="196" y2="196"/><ellipse cx="57" cy="207" fill="#000000" rx="3" ry="3" style="stroke:#000000;stroke-width:1.0;"/><text fill="#000000" font-family="sans-serif" font-size="14" lengthAdjust="spacing" textLength="14" x="66" y="213.5352">ID</text><line style="stroke:#181818;stroke-width:1.0;" x1="47" x2="169" y1="220.4883" y2="220.4883"/><ellipse cx="57" cy="231.4883" fill="#000000" rx="3" ry="3" style="stroke:#000000;stroke-width:1.0;"/><text fill="#000000" font-family="sans-serif" font-size="14" lengthAdjust="spacing" textLength="98" x="66" y="238.0234">オブジェクトID</text><ellipse cx="57" cy="247.9766" fill="#000000" rx="3" ry="3" style="stroke:#000000;stroke-width:1.0;"/><text fill="#000000" font-family="sans-serif" font-size="14" lengthAdjust="spacing" textLength="98" x="66" y="254.5117">ディレクトリ名</text></g><!--MD5=[830c3e4671114de6e5701af3f350aea2]
class ドキュメント--><g id="elem_ドキュメント"><rect codeLine="22" fill="#F1F1F1" height="97.4648" id="ドキュメント" rx="2.5" ry="2.5" style="stroke:#181818;stroke-width:0.5;" width="124" x="205" y="164"/><ellipse cx="223.6" cy="180" fill="#ADD1B2" rx="11" ry="11" style="stroke:#181818;stroke-width:1.0;"/><path d="M227.2143,186.5 L219.4945,186.5 L219.4945,174.1069 L227.2143,174.1069 L227.2143,176.2651 L221.9433,176.2651 L221.9433,178.938 L226.7162,178.938 L226.7162,181.0962 L221.9433,181.0962 L221.9433,184.3418 L227.2143,184.3418 Z " fill="#000000"/><text fill="#000000" font-family="sans-serif" font-size="14" lengthAdjust="spacing" textLength="84" x="238.4" y="185.291">ドキュメント</text><line style="stroke:#181818;stroke-width:0.5;" x1="206" x2="328" y1="196" y2="196"/><ellipse cx="216" cy="207" fill="#000000" rx="3" ry="3" style="stroke:#000000;stroke-width:1.0;"/><text fill="#000000" font-family="sans-serif" font-size="14" lengthAdjust="spacing" textLength="14" x="225" y="213.5352">ID</text><line style="stroke:#181818;stroke-width:1.0;" x1="206" x2="328" y1="220.4883" y2="220.4883"/><ellipse cx="216" cy="231.4883" fill="#000000" rx="3" ry="3" style="stroke:#000000;stroke-width:1.0;"/><text fill="#000000" font-family="sans-serif" font-size="14" lengthAdjust="spacing" textLength="98" x="225" y="238.0234">オブジェクトID</text><ellipse cx="216" cy="247.9766" fill="#000000" rx="3" ry="3" style="stroke:#000000;stroke-width:1.0;"/><text fill="#000000" font-family="sans-serif" font-size="14" lengthAdjust="spacing" textLength="98" x="225" y="254.5117">ドキュメント名</text></g><!--MD5=[6e1bcf15a2a55ff5968ab9b0b0e2a405]
class ドキュメント履歴--><g id="elem_ドキュメント履歴"><rect codeLine="29" fill="#F1F1F1" height="146.9297" id="ドキュメント履歴" rx="2.5" ry="2.5" style="stroke:#181818;stroke-width:0.5;" width="144" x="195" y="321"/><ellipse cx="210" cy="337" fill="#ADD1B2" rx="11" ry="11" style="stroke:#181818;stroke-width:1.0;"/><path d="M213.6143,343.5 L205.8945,343.5 L205.8945,331.1069 L213.6143,331.1069 L213.6143,333.2651 L208.3433,333.2651 L208.3433,335.938 L213.1162,335.938 L213.1162,338.0962 L208.3433,338.0962 L208.3433,341.3418 L213.6143,341.3418 Z " fill="#000000"/><text fill="#000000" font-family="sans-serif" font-size="14" lengthAdjust="spacing" textLength="112" x="224" y="342.291">ドキュメント履歴</text><line style="stroke:#181818;stroke-width:0.5;" x1="196" x2="338" y1="353" y2="353"/><ellipse cx="206" cy="364" fill="#000000" rx="3" ry="3" style="stroke:#000000;stroke-width:1.0;"/><text fill="#000000" font-family="sans-serif" font-size="14" lengthAdjust="spacing" textLength="14" x="215" y="370.5352">ID</text><line style="stroke:#181818;stroke-width:1.0;" x1="196" x2="338" y1="377.4883" y2="377.4883"/><ellipse cx="206" cy="388.4883" fill="#000000" rx="3" ry="3" style="stroke:#000000;stroke-width:1.0;"/><text fill="#000000" font-family="sans-serif" font-size="14" lengthAdjust="spacing" textLength="98" x="215" y="395.0234">ドキュメントID</text><ellipse cx="206" cy="404.9766" fill="#000000" rx="3" ry="3" style="stroke:#000000;stroke-width:1.0;"/><text fill="#000000" font-family="sans-serif" font-size="14" lengthAdjust="spacing" textLength="84" x="215" y="411.5117">テキスト情報</text><ellipse cx="206" cy="421.4648" fill="#000000" rx="3" ry="3" style="stroke:#000000;stroke-width:1.0;"/><text fill="#000000" font-family="sans-serif" font-size="14" lengthAdjust="spacing" textLength="70" x="215" y="428">最新フラグ</text><ellipse cx="206" cy="437.9531" fill="#000000" rx="3" ry="3" style="stroke:#000000;stroke-width:1.0;"/><text fill="#000000" font-family="sans-serif" font-size="14" lengthAdjust="spacing" textLength="56" x="215" y="444.4883">更新者ID</text><ellipse cx="206" cy="454.4414" fill="#000000" rx="3" ry="3" style="stroke:#000000;stroke-width:1.0;"/><text fill="#000000" font-family="sans-serif" font-size="14" lengthAdjust="spacing" textLength="56" x="215" y="460.9766">更新日時</text></g><!--MD5=[003d9864db31d3ee0391c6780c6e21da]
class オブジェクト経路--><g id="elem_オブジェクト経路"><rect codeLine="39" fill="#F1F1F1" height="97.4648" id="オブジェクト経路" rx="2.5" ry="2.5" style="stroke:#181818;stroke-width:0.5;" width="144" x="281" y="7"/><ellipse cx="296" cy="23" fill="#ADD1B2" rx="11" ry="11" style="stroke:#181818;stroke-width:1.0;"/><path d="M299.6143,29.5 L291.8945,29.5 L291.8945,17.1069 L299.6143,17.1069 L299.6143,19.2651 L294.3433,19.2651 L294.3433,21.938 L299.1162,21.938 L299.1162,24.0962 L294.3433,24.0962 L294.3433,27.3418 L299.6143,27.3418 Z " fill="#000000"/><text fill="#000000" font-family="sans-serif" font-size="14" lengthAdjust="spacing" textLength="112" x="310" y="28.291">オブジェクト経路</text><line style="stroke:#181818;stroke-width:0.5;" x1="282" x2="424" y1="39" y2="39"/><ellipse cx="292" cy="50" fill="#000000" rx="3" ry="3" style="stroke:#000000;stroke-width:1.0;"/><text fill="#000000" font-family="sans-serif" font-size="14" lengthAdjust="spacing" textLength="42" x="301" y="56.5352">先祖ID</text><ellipse cx="292" cy="66.4883" fill="#000000" rx="3" ry="3" style="stroke:#000000;stroke-width:1.0;"/><text fill="#000000" font-family="sans-serif" font-size="14" lengthAdjust="spacing" textLength="42" x="301" y="73.0234">子孫ID</text><ellipse cx="292" cy="82.9766" fill="#000000" rx="3" ry="3" style="stroke:#000000;stroke-width:1.0;"/><text fill="#000000" font-family="sans-serif" font-size="14" lengthAdjust="spacing" textLength="28" x="301" y="89.5117">深さ</text><line style="stroke:#181818;stroke-width:0.5;" x1="282" x2="424" y1="96.4648" y2="96.4648"/></g><!--MD5=[6f5a078544c23f1b8a880f14ce581674]
link ユーザー to オブジェクト--><g id="link_ユーザー_オブジェクト"><path codeLine="45" d="M103.31,55.5 C109.42,55.5 115.53,55.5 121.64,55.5 " fill="none" id="ユーザー-オブジェクト" style="stroke:#181818;stroke-width:1.0;"/><line style="stroke:#181818;stroke-width:1.0;" x1="121.97" x2="129.97" y1="55.5" y2="49.5"/><line style="stroke:#181818;stroke-width:1.0;" x1="121.97" x2="129.97" y1="55.5" y2="61.5"/><line style="stroke:#181818;stroke-width:1.0;" x1="121.97" x2="129.97" y1="55.5" y2="55.5"/><line style="stroke:#181818;stroke-width:1.0;" x1="119.97" x2="119.97" y1="51.5" y2="59.5"/><line style="stroke:#181818;stroke-width:1.0;" x1="99.15" x2="99.15" y1="59.5" y2="51.5"/><line style="stroke:#181818;stroke-width:1.0;" x1="102.15" x2="102.15" y1="59.5" y2="51.5"/><line style="stroke:#181818;stroke-width:1.0;" x1="103.15" x2="95.15" y1="55.5" y2="55.5"/></g><!--MD5=[c51a54e285af3209fc0f6ee63e715d4d]
link オブジェクト to ドキュメント--><g id="link_オブジェクト_ドキュメント"><path codeLine="46" d="M216.03,111.49 C223.46,126.07 231.48,141.8 238.91,156.38 " fill="none" id="オブジェクト-ドキュメント" style="stroke:#181818;stroke-width:1.0;"/><line style="stroke:#181818;stroke-width:1.0;" x1="237.7401" x2="242.73" y1="154.0869" y2="163.89"/><ellipse cx="237.7401" cy="154.0869" fill="none" rx="4" ry="4" style="stroke:#181818;stroke-width:1.0;"/><line style="stroke:#181818;stroke-width:1.0;" x1="244.4802" x2="237.3507" y1="158.5107" y2="162.1398"/><line style="stroke:#181818;stroke-width:1.0;" x1="210.6041" x2="217.7307" y1="109.6507" y2="106.0159"/><line style="stroke:#181818;stroke-width:1.0;" x1="211.9672" x2="219.0938" y1="112.3232" y2="108.6883"/><line style="stroke:#181818;stroke-width:1.0;" x1="215.9848" x2="212.35" y1="111.3966" y2="104.27"/></g><!--MD5=[64d42a1b4319bf6da5e5903413501e82]
link オブジェクト to ディレクトリ--><g id="link_オブジェクト_ディレクトリ"><path codeLine="47" d="M159.62,111.49 C152.09,126.07 143.97,141.8 136.45,156.38 " fill="none" id="オブジェクト-ディレクトリ" style="stroke:#181818;stroke-width:1.0;"/><line style="stroke:#181818;stroke-width:1.0;" x1="137.6226" x2="132.57" y1="154.1191" y2="163.89"/><ellipse cx="137.6226" cy="154.1191" fill="none" rx="4" ry="4" style="stroke:#181818;stroke-width:1.0;"/><line style="stroke:#181818;stroke-width:1.0;" x1="137.9604" x2="130.8542" y1="162.1742" y2="158.4996"/><line style="stroke:#181818;stroke-width:1.0;" x1="157.9496" x2="165.0558" y1="105.9858" y2="109.6604"/><line style="stroke:#181818;stroke-width:1.0;" x1="156.5716" x2="163.6778" y1="108.6506" y2="112.3252"/><line style="stroke:#181818;stroke-width:1.0;" x1="159.6654" x2="163.34" y1="111.3761" y2="104.27"/></g><!--MD5=[fcbe8daaf8288e27e650363f38da0cb4]
link オブジェクト to オブジェクト経路--><g id="link_オブジェクト_オブジェクト経路"><path codeLine="48" d="M253.87,90.4 C260.02,91.49 266.16,91.98 272.31,91.86 " fill="none" id="オブジェクト-オブジェクト経路" style="stroke:#181818;stroke-width:1.0;"/><line style="stroke:#181818;stroke-width:1.0;" x1="272.7165" x2="280.3144" y1="91.8341" y2="85.3324"/><line style="stroke:#181818;stroke-width:1.0;" x1="272.7165" x2="281.0856" y1="91.8341" y2="97.3076"/><line style="stroke:#181818;stroke-width:1.0;" x1="272.7165" x2="280.7" y1="91.8341" y2="91.32"/><line style="stroke:#181818;stroke-width:1.0;" x1="270.4636" x2="270.9777" y1="87.9709" y2="95.9544"/><line style="stroke:#181818;stroke-width:1.0;" x1="253.8242" x2="244.7243" y1="90.3843" y2="94.5306"/><line style="stroke:#181818;stroke-width:1.0;" x1="253.8242" x2="247.2957" y1="90.3843" y2="82.8094"/><line style="stroke:#181818;stroke-width:1.0;" x1="253.8242" x2="246.01" y1="90.3843" y2="88.67"/><line style="stroke:#181818;stroke-width:1.0;" x1="254.9206" x2="256.6348" y1="94.7199" y2="86.9057"/></g><!--MD5=[fcbe8daaf8288e27e650363f38da0cb4]
link オブジェクト to オブジェクト経路--><g id="link_オブジェクト_オブジェクト経路"><path codeLine="49" d="M253.87,20.6 C260.02,19.51 266.16,19.02 272.31,19.14 " fill="none" id="オブジェクト-オブジェクト経路-1" style="stroke:#181818;stroke-width:1.0;"/><line style="stroke:#181818;stroke-width:1.0;" x1="272.7165" x2="281.0856" y1="19.1659" y2="13.6924"/><line style="stroke:#181818;stroke-width:1.0;" x1="272.7165" x2="280.3144" y1="19.1659" y2="25.6676"/><line style="stroke:#181818;stroke-width:1.0;" x1="272.7165" x2="280.7" y1="19.1659" y2="19.68"/><line style="stroke:#181818;stroke-width:1.0;" x1="270.9777" x2="270.4636" y1="15.0456" y2="23.0291"/><line style="stroke:#181818;stroke-width:1.0;" x1="253.8242" x2="247.2957" y1="20.6157" y2="28.1906"/><line style="stroke:#181818;stroke-width:1.0;" x1="253.8242" x2="244.7243" y1="20.6157" y2="16.4694"/><line style="stroke:#181818;stroke-width:1.0;" x1="253.8242" x2="246.01" y1="20.6157" y2="22.33"/><line style="stroke:#181818;stroke-width:1.0;" x1="256.6348" x2="254.9206" y1="24.0943" y2="16.2801"/></g><!--MD5=[b5ca547705443d219febdaff026a2460]
link ドキュメント to ドキュメント履歴--><g id="link_ドキュメント_ドキュメント履歴"><path codeLine="50" d="M267,269.56 C267,283.23 267,298.12 267,312.69 " fill="none" id="ドキュメント-ドキュメント履歴" style="stroke:#181818;stroke-width:1.0;"/><line style="stroke:#181818;stroke-width:1.0;" x1="267" x2="273" y1="312.74" y2="320.74"/><line style="stroke:#181818;stroke-width:1.0;" x1="267" x2="261" y1="312.74" y2="320.74"/><line style="stroke:#181818;stroke-width:1.0;" x1="267" x2="267" y1="312.74" y2="320.74"/><line style="stroke:#181818;stroke-width:1.0;" x1="271" x2="263" y1="310.74" y2="310.74"/><line style="stroke:#181818;stroke-width:1.0;" x1="263" x2="271" y1="265.26" y2="265.26"/><line style="stroke:#181818;stroke-width:1.0;" x1="263" x2="271" y1="268.26" y2="268.26"/><line style="stroke:#181818;stroke-width:1.0;" x1="267" x2="267" y1="269.26" y2="261.26"/></g><!--MD5=[78a3ae8603a3623967a3d7896b4ebb70]
@startuml

entity "ユーザー" {
    *ID
    - -
    *表示名
}

entity "オブジェクト" {
    *ID
    - -
    *ルートフラグ
    *作成者ID
}

entity "ディレクトリ" {
    *ID
    - -
    *オブジェクトID
    *ディレクトリ名
}

entity "ドキュメント" {
    *ID
    - -
    *オブジェクトID
    *ドキュメント名
}

entity "ドキュメント履歴" {
    *ID
    - -
    *ドキュメントID
    *テキスト情報
    *最新フラグ
    *更新者ID
    *更新日時
}

entity "オブジェクト経路" {
    *先祖ID
    *子孫ID
    *深さ
}

ユーザー ||-r-|{ オブジェクト
オブジェクト ||-d-o| ドキュメント
オブジェクト ||-d-o| ディレクトリ
オブジェクト }|-r-|{ オブジェクト経路
オブジェクト }|-r-|{ オブジェクト経路
ドキュメント ||-d-|{ ドキュメント履歴

@enduml

PlantUML version 1.2022.6(Wed Jun 22 02:34:49 JST 2022)
(GPL source distribution)
Java Runtime: OpenJDK Runtime Environment
JVM: OpenJDK 64-Bit Server VM
Default Encoding: UTF-8
Language: ja
Country: JP
--></g></svg>