<?xml version="1.0" encoding="UTF-8" standalone="no"?><svg xmlns="http://www.w3.org/2000/svg" xmlns:xlink="http://www.w3.org/1999/xlink" contentStyleType="text/css" height="491px" preserveAspectRatio="none" style="width:440px;height:491px;background:#FFFFFF;" version="1.1" viewBox="0 0 440 491" width="440px" zoomAndPan="magnify"><defs/><g><!--MD5=[e6c131967da0181654129b9ee700e883]
class ユーザー--><g id="elem_ユーザー"><rect codeLine="2" fill="#F1F1F1" height="80.9766" id="ユーザー" rx="2.5" ry="2.5" style="stroke:#181818;stroke-width:0.5;" width="88" x="7" y="31.5"/><ellipse cx="22" cy="47.5" fill="#ADD1B2" rx="11" ry="11" style="stroke:#181818;stroke-width:1.0;"/><path d="M25.6143,54 L17.8945,54 L17.8945,41.6069 L25.6143,41.6069 L25.6143,43.7651 L20.3433,43.7651 L20.3433,46.438 L25.1162,46.438 L25.1162,48.5962 L20.3433,48.5962 L20.3433,51.8418 L25.6143,51.8418 Z " fill="#000000"/><text fill="#000000" font-family="sans-serif" font-size="14" lengthAdjust="spacing" textLength="56" x="36" y="52.791">ユーザー</text><line style="stroke:#181818;stroke-width:0.5;" x1="8" x2="94" y1="63.5" y2="63.5"/><ellipse cx="18" cy="74.5" fill="#000000" rx="3" ry="3" style="stroke:#000000;stroke-width:1.0;"/><text fill="#000000" font-family="sans-serif" font-size="14" lengthAdjust="spacing" textLength="14" x="27" y="81.0352">ID</text><line style="stroke:#181818;stroke-width:1.0;" x1="8" x2="94" y1="87.9883" y2="87.9883"/><ellipse cx="18" cy="98.9883" fill="#000000" rx="3" ry="3" style="stroke:#000000;stroke-width:1.0;"/><text fill="#000000" font-family="sans-serif" font-size="14" lengthAdjust="spacing" textLength="42" x="27" y="105.5234">表示名</text></g><!--MD5=[68b9cae357ee1e35ec1bf57d7fe5aa5e]
class オブジェクト--><g id="elem_オブジェクト"><rect codeLine="8" fill="#F1F1F1" height="130.4414" id="オブジェクト" rx="2.5" ry="2.5" style="stroke:#181818;stroke-width:0.5;" width="124" x="130" y="7"/><ellipse cx="148.6" cy="23" fill="#ADD1B2" rx="11" ry="11" style="stroke:#181818;stroke-width:1.0;"/><path d="M152.2143,29.5 L144.4945,29.5 L144.4945,17.1069 L152.2143,17.1069 L152.2143,19.2651 L146.9433,19.2651 L146.9433,21.938 L151.7162,21.938 L151.7162,24.0962 L146.9433,24.0962 L146.9433,27.3418 L152.2143,27.3418 Z " fill="#000000"/><text fill="#000000" font-family="sans-serif" font-size="14" lengthAdjust="spacing" textLength="84" x="163.4" y="28.291">オブジェクト</text><line style="stroke:#181818;stroke-width:0.5;" x1="131" x2="253" y1="39" y2="39"/><ellipse cx="141" cy="50" fill="#000000" rx="3" ry="3" style="stroke:#000000;stroke-width:1.0;"/><text fill="#000000" font-family="sans-serif" font-size="14" lengthAdjust="spacing" textLength="14" x="150" y="56.5352">ID</text><line style="stroke:#181818;stroke-width:1.0;" x1="131" x2="253" y1="63.4883" y2="63.4883"/><ellipse cx="141" cy="74.4883" fill="#000000" rx="3" ry="3" style="stroke:#000000;stroke-width:1.0;"/><text fill="#000000" font-family="sans-serif" font-size="14" lengthAdjust="spacing" textLength="98" x="150" y="81.0234">ディレクトリID</text><ellipse cx="141" cy="90.9766" fill="#000000" rx="3" ry="3" style="stroke:#000000;stroke-width:1.0;"/><text fill="#000000" font-family="sans-serif" font-size="14" lengthAdjust="spacing" textLength="70" x="150" y="97.5117">ファイルID</text><ellipse cx="141" cy="107.4648" fill="#000000" rx="3" ry="3" style="stroke:#000000;stroke-width:1.0;"/><text fill="#000000" font-family="sans-serif" font-size="14" lengthAdjust="spacing" textLength="84" x="150" y="114">ルートフラグ</text><ellipse cx="141" cy="123.9531" fill="#000000" rx="3" ry="3" style="stroke:#000000;stroke-width:1.0;"/><text fill="#000000" font-family="sans-serif" font-size="14" lengthAdjust="spacing" textLength="56" x="150" y="130.4883">作成者ID</text></g><!--MD5=[7976941778f6fa4dada80cf03230a3f9]
class ディレクトリ--><g id="elem_ディレクトリ"><rect codeLine="17" fill="#F1F1F1" height="80.9766" id="ディレクトリ" rx="2.5" ry="2.5" style="stroke:#181818;stroke-width:0.5;" width="124" x="50" y="197"/><ellipse cx="68.6" cy="213" fill="#ADD1B2" rx="11" ry="11" style="stroke:#181818;stroke-width:1.0;"/><path d="M72.2143,219.5 L64.4945,219.5 L64.4945,207.1069 L72.2143,207.1069 L72.2143,209.2651 L66.9433,209.2651 L66.9433,211.938 L71.7162,211.938 L71.7162,214.0962 L66.9433,214.0962 L66.9433,217.3418 L72.2143,217.3418 Z " fill="#000000"/><text fill="#000000" font-family="sans-serif" font-size="14" lengthAdjust="spacing" textLength="84" x="83.4" y="218.291">ディレクトリ</text><line style="stroke:#181818;stroke-width:0.5;" x1="51" x2="173" y1="229" y2="229"/><ellipse cx="61" cy="240" fill="#000000" rx="3" ry="3" style="stroke:#000000;stroke-width:1.0;"/><text fill="#000000" font-family="sans-serif" font-size="14" lengthAdjust="spacing" textLength="14" x="70" y="246.5352">ID</text><line style="stroke:#181818;stroke-width:1.0;" x1="51" x2="173" y1="253.4883" y2="253.4883"/><ellipse cx="61" cy="264.4883" fill="#000000" rx="3" ry="3" style="stroke:#000000;stroke-width:1.0;"/><text fill="#000000" font-family="sans-serif" font-size="14" lengthAdjust="spacing" textLength="98" x="70" y="271.0234">ディレクトリ名</text></g><!--MD5=[830c3e4671114de6e5701af3f350aea2]
class ドキュメント--><g id="elem_ドキュメント"><rect codeLine="23" fill="#F1F1F1" height="80.9766" id="ドキュメント" rx="2.5" ry="2.5" style="stroke:#181818;stroke-width:0.5;" width="124" x="209" y="197"/><ellipse cx="227.6" cy="213" fill="#ADD1B2" rx="11" ry="11" style="stroke:#181818;stroke-width:1.0;"/><path d="M231.2143,219.5 L223.4945,219.5 L223.4945,207.1069 L231.2143,207.1069 L231.2143,209.2651 L225.9433,209.2651 L225.9433,211.938 L230.7162,211.938 L230.7162,214.0962 L225.9433,214.0962 L225.9433,217.3418 L231.2143,217.3418 Z " fill="#000000"/><text fill="#000000" font-family="sans-serif" font-size="14" lengthAdjust="spacing" textLength="84" x="242.4" y="218.291">ドキュメント</text><line style="stroke:#181818;stroke-width:0.5;" x1="210" x2="332" y1="229" y2="229"/><ellipse cx="220" cy="240" fill="#000000" rx="3" ry="3" style="stroke:#000000;stroke-width:1.0;"/><text fill="#000000" font-family="sans-serif" font-size="14" lengthAdjust="spacing" textLength="14" x="229" y="246.5352">ID</text><line style="stroke:#181818;stroke-width:1.0;" x1="210" x2="332" y1="253.4883" y2="253.4883"/><ellipse cx="220" cy="264.4883" fill="#000000" rx="3" ry="3" style="stroke:#000000;stroke-width:1.0;"/><text fill="#000000" font-family="sans-serif" font-size="14" lengthAdjust="spacing" textLength="98" x="229" y="271.0234">ドキュメント名</text></g><!--MD5=[6e1bcf15a2a55ff5968ab9b0b0e2a405]
class ドキュメント履歴--><g id="elem_ドキュメント履歴"><rect codeLine="29" fill="#F1F1F1" height="146.9297" id="ドキュメント履歴" rx="2.5" ry="2.5" style="stroke:#181818;stroke-width:0.5;" width="144" x="199" y="338"/><ellipse cx="214" cy="354" fill="#ADD1B2" rx="11" ry="11" style="stroke:#181818;stroke-width:1.0;"/><path d="M217.6143,360.5 L209.8945,360.5 L209.8945,348.1069 L217.6143,348.1069 L217.6143,350.2651 L212.3433,350.2651 L212.3433,352.938 L217.1162,352.938 L217.1162,355.0962 L212.3433,355.0962 L212.3433,358.3418 L217.6143,358.3418 Z " fill="#000000"/><text fill="#000000" font-family="sans-serif" font-size="14" lengthAdjust="spacing" textLength="112" x="228" y="359.291">ドキュメント履歴</text><line style="stroke:#181818;stroke-width:0.5;" x1="200" x2="342" y1="370" y2="370"/><ellipse cx="210" cy="381" fill="#000000" rx="3" ry="3" style="stroke:#000000;stroke-width:1.0;"/><text fill="#000000" font-family="sans-serif" font-size="14" lengthAdjust="spacing" textLength="14" x="219" y="387.5352">ID</text><line style="stroke:#181818;stroke-width:1.0;" x1="200" x2="342" y1="394.4883" y2="394.4883"/><ellipse cx="210" cy="405.4883" fill="#000000" rx="3" ry="3" style="stroke:#000000;stroke-width:1.0;"/><text fill="#000000" font-family="sans-serif" font-size="14" lengthAdjust="spacing" textLength="98" x="219" y="412.0234">ドキュメントID</text><ellipse cx="210" cy="421.9766" fill="#000000" rx="3" ry="3" style="stroke:#000000;stroke-width:1.0;"/><text fill="#000000" font-family="sans-serif" font-size="14" lengthAdjust="spacing" textLength="84" x="219" y="428.5117">テキスト情報</text><ellipse cx="210" cy="438.4648" fill="#000000" rx="3" ry="3" style="stroke:#000000;stroke-width:1.0;"/><text fill="#000000" font-family="sans-serif" font-size="14" lengthAdjust="spacing" textLength="70" x="219" y="445">最新フラグ</text><ellipse cx="210" cy="454.9531" fill="#000000" rx="3" ry="3" style="stroke:#000000;stroke-width:1.0;"/><text fill="#000000" font-family="sans-serif" font-size="14" lengthAdjust="spacing" textLength="56" x="219" y="461.4883">更新者ID</text><ellipse cx="210" cy="471.4414" fill="#000000" rx="3" ry="3" style="stroke:#000000;stroke-width:1.0;"/><text fill="#000000" font-family="sans-serif" font-size="14" lengthAdjust="spacing" textLength="56" x="219" y="477.9766">更新日時</text></g><!--MD5=[003d9864db31d3ee0391c6780c6e21da]
class オブジェクト経路--><g id="elem_オブジェクト経路"><rect codeLine="39" fill="#F1F1F1" height="113.9531" id="オブジェクト経路" rx="2.5" ry="2.5" style="stroke:#181818;stroke-width:0.5;" width="144" x="289" y="15"/><ellipse cx="304" cy="31" fill="#ADD1B2" rx="11" ry="11" style="stroke:#181818;stroke-width:1.0;"/><path d="M307.6143,37.5 L299.8945,37.5 L299.8945,25.1069 L307.6143,25.1069 L307.6143,27.2651 L302.3433,27.2651 L302.3433,29.938 L307.1162,29.938 L307.1162,32.0962 L302.3433,32.0962 L302.3433,35.3418 L307.6143,35.3418 Z " fill="#000000"/><text fill="#000000" font-family="sans-serif" font-size="14" lengthAdjust="spacing" textLength="112" x="318" y="36.291">オブジェクト経路</text><line style="stroke:#181818;stroke-width:0.5;" x1="290" x2="432" y1="47" y2="47"/><ellipse cx="300" cy="58" fill="#000000" rx="3" ry="3" style="stroke:#000000;stroke-width:1.0;"/><text fill="#000000" font-family="sans-serif" font-size="14" lengthAdjust="spacing" textLength="14" x="309" y="64.5352">ID</text><line style="stroke:#181818;stroke-width:1.0;" x1="290" x2="432" y1="71.4883" y2="71.4883"/><ellipse cx="300" cy="82.4883" fill="#000000" rx="3" ry="3" style="stroke:#000000;stroke-width:1.0;"/><text fill="#000000" font-family="sans-serif" font-size="14" lengthAdjust="spacing" textLength="42" x="309" y="89.0234">先祖ID</text><ellipse cx="300" cy="98.9766" fill="#000000" rx="3" ry="3" style="stroke:#000000;stroke-width:1.0;"/><text fill="#000000" font-family="sans-serif" font-size="14" lengthAdjust="spacing" textLength="42" x="309" y="105.5117">子孫ID</text><ellipse cx="300" cy="115.4648" fill="#000000" rx="3" ry="3" style="stroke:#000000;stroke-width:1.0;"/><text fill="#000000" font-family="sans-serif" font-size="14" lengthAdjust="spacing" textLength="28" x="309" y="122">深さ</text></g><!--MD5=[6f5a078544c23f1b8a880f14ce581674]
link ユーザー to オブジェクト--><g id="link_ユーザー_オブジェクト"><path codeLine="47" d="M103.23,72 C109.34,72 115.45,72 121.56,72 " fill="none" id="ユーザー-オブジェクト" style="stroke:#181818;stroke-width:1.0;"/><line style="stroke:#181818;stroke-width:1.0;" x1="121.9" x2="129.9" y1="72" y2="66"/><line style="stroke:#181818;stroke-width:1.0;" x1="121.9" x2="129.9" y1="72" y2="78"/><line style="stroke:#181818;stroke-width:1.0;" x1="121.9" x2="129.9" y1="72" y2="72"/><line style="stroke:#181818;stroke-width:1.0;" x1="119.9" x2="119.9" y1="68" y2="76"/><line style="stroke:#181818;stroke-width:1.0;" x1="99.06" x2="99.06" y1="76" y2="68"/><line style="stroke:#181818;stroke-width:1.0;" x1="102.06" x2="102.06" y1="76" y2="68"/><line style="stroke:#181818;stroke-width:1.0;" x1="103.06" x2="95.06" y1="72" y2="72"/></g><!--MD5=[c51a54e285af3209fc0f6ee63e715d4d]
link オブジェクト to ドキュメント--><g id="link_オブジェクト_ドキュメント"><path codeLine="48" d="M226.66,144.72 C233.91,159.73 241.38,175.2 248.08,189.06 " fill="none" id="オブジェクト-ドキュメント" style="stroke:#181818;stroke-width:1.0;"/><line style="stroke:#181818;stroke-width:1.0;" x1="246.9168" x2="251.71" y1="186.6792" y2="196.58"/><ellipse cx="246.9168" cy="186.6792" fill="none" rx="4" ry="4" style="stroke:#181818;stroke-width:1.0;"/><line style="stroke:#181818;stroke-width:1.0;" x1="253.5673" x2="246.3667" y1="191.2367" y2="194.7227"/><line style="stroke:#181818;stroke-width:1.0;" x1="221.1341" x2="228.3403" y1="142.4903" y2="139.0159"/><line style="stroke:#181818;stroke-width:1.0;" x1="222.437" x2="229.6432" y1="145.1926" y2="141.7182"/><line style="stroke:#181818;stroke-width:1.0;" x1="226.4744" x2="223" y1="144.3561" y2="137.15"/></g><!--MD5=[64d42a1b4319bf6da5e5903413501e82]
link オブジェクト to ディレクトリ--><g id="link_オブジェクト_ディレクトリ"><path codeLine="49" d="M156.91,144.72 C149.56,159.73 141.99,175.2 135.21,189.06 " fill="none" id="オブジェクト-ディレクトリ" style="stroke:#181818;stroke-width:1.0;"/><line style="stroke:#181818;stroke-width:1.0;" x1="136.3627" x2="131.53" y1="186.6985" y2="196.58"/><ellipse cx="136.3627" cy="186.6985" fill="none" rx="4" ry="4" style="stroke:#181818;stroke-width:1.0;"/><line style="stroke:#181818;stroke-width:1.0;" x1="136.8806" x2="129.6941" y1="194.7441" y2="191.2294"/><line style="stroke:#181818;stroke-width:1.0;" x1="155.2594" x2="162.4459" y1="138.9859" y2="142.5006"/><line style="stroke:#181818;stroke-width:1.0;" x1="153.9413" x2="161.1279" y1="141.6809" y2="145.1956"/><line style="stroke:#181818;stroke-width:1.0;" x1="157.0953" x2="160.61" y1="144.3366" y2="137.15"/></g><!--MD5=[fcbe8daaf8288e27e650363f38da0cb4]
link オブジェクト to オブジェクト経路--><g id="link_オブジェクト_オブジェクト経路"><path codeLine="50" d="M261.91,119.3 C268.2,120.55 274.48,120.99 280.77,120.63 " fill="none" id="オブジェクト-オブジェクト経路" style="stroke:#181818;stroke-width:1.0;"/><line style="stroke:#181818;stroke-width:1.0;" x1="280.7791" x2="288.0662" y1="120.615" y2="113.7668"/><line style="stroke:#181818;stroke-width:1.0;" x1="280.7791" x2="289.3938" y1="120.615" y2="125.6932"/><line style="stroke:#181818;stroke-width:1.0;" x1="280.7791" x2="288.73" y1="120.615" y2="119.73"/><line style="stroke:#181818;stroke-width:1.0;" x1="278.3489" x2="279.2339" y1="116.8608" y2="124.8117"/><line style="stroke:#181818;stroke-width:1.0;" x1="261.8035" x2="252.5721" y1="119.2805" y2="123.1251"/><line style="stroke:#181818;stroke-width:1.0;" x1="261.8035" x2="255.5279" y1="119.2805" y2="111.4949"/><line style="stroke:#181818;stroke-width:1.0;" x1="261.8035" x2="254.05" y1="119.2805" y2="117.31"/><line style="stroke:#181818;stroke-width:1.0;" x1="262.7566" x2="264.7272" y1="123.6499" y2="115.8964"/></g><!--MD5=[fcbe8daaf8288e27e650363f38da0cb4]
link オブジェクト to オブジェクト経路--><g id="link_オブジェクト_オブジェクト経路"><path codeLine="51" d="M261.91,24.7 C268.2,23.45 274.48,23.01 280.77,23.37 " fill="none" id="オブジェクト-オブジェクト経路-1" style="stroke:#181818;stroke-width:1.0;"/><line style="stroke:#181818;stroke-width:1.0;" x1="280.7791" x2="289.3938" y1="23.385" y2="18.3068"/><line style="stroke:#181818;stroke-width:1.0;" x1="280.7791" x2="288.0662" y1="23.385" y2="30.2332"/><line style="stroke:#181818;stroke-width:1.0;" x1="280.7791" x2="288.73" y1="23.385" y2="24.27"/><line style="stroke:#181818;stroke-width:1.0;" x1="279.2339" x2="278.3489" y1="19.1883" y2="27.1392"/><line style="stroke:#181818;stroke-width:1.0;" x1="261.8035" x2="255.5279" y1="24.7195" y2="32.5051"/><line style="stroke:#181818;stroke-width:1.0;" x1="261.8035" x2="252.5721" y1="24.7195" y2="20.8749"/><line style="stroke:#181818;stroke-width:1.0;" x1="261.8035" x2="254.05" y1="24.7195" y2="26.69"/><line style="stroke:#181818;stroke-width:1.0;" x1="264.7272" x2="262.7566" y1="28.1036" y2="20.3501"/></g><!--MD5=[b5ca547705443d219febdaff026a2460]
link ドキュメント to ドキュメント履歴--><g id="link_ドキュメント_ドキュメント履歴"><path codeLine="52" d="M271,286.49 C271,299.89 271,314.84 271,329.58 " fill="none" id="ドキュメント-ドキュメント履歴" style="stroke:#181818;stroke-width:1.0;"/><line style="stroke:#181818;stroke-width:1.0;" x1="271" x2="277" y1="329.74" y2="337.74"/><line style="stroke:#181818;stroke-width:1.0;" x1="271" x2="265" y1="329.74" y2="337.74"/><line style="stroke:#181818;stroke-width:1.0;" x1="271" x2="271" y1="329.74" y2="337.74"/><line style="stroke:#181818;stroke-width:1.0;" x1="275" x2="267" y1="327.74" y2="327.74"/><line style="stroke:#181818;stroke-width:1.0;" x1="267" x2="275" y1="282.39" y2="282.39"/><line style="stroke:#181818;stroke-width:1.0;" x1="267" x2="275" y1="285.39" y2="285.39"/><line style="stroke:#181818;stroke-width:1.0;" x1="271" x2="271" y1="286.39" y2="278.39"/></g><!--MD5=[b0922df1e14599bfe96749d68615fa78]
@startuml

entity "ユーザー" {
    *ID
    - -
    *表示名
}

entity "オブジェクト" {
    *ID
    - -
    *ディレクトリID
    *ファイルID
    *ルートフラグ
    *作成者ID
}

entity "ディレクトリ" {
    *ID
    - -
    *ディレクトリ名
}

entity "ドキュメント" {
    *ID
    - -
    *ドキュメント名
}

entity "ドキュメント履歴" {
    *ID
    - -
    *ドキュメントID
    *テキスト情報
    *最新フラグ
    *更新者ID
    *更新日時
}

entity "オブジェクト経路" {
    *ID
    - -
    *先祖ID
    *子孫ID
    *深さ
}

ユーザー ||-r-|{ オブジェクト
オブジェクト ||-d-o| ドキュメント
オブジェクト ||-d-o| ディレクトリ
オブジェクト }|-r-|{ オブジェクト経路
オブジェクト }|-r-|{ オブジェクト経路
ドキュメント ||-d-|{ ドキュメント履歴

@enduml

PlantUML version 1.2022.6(Wed Jun 22 02:34:49 JST 2022)
(GPL source distribution)
Java Runtime: OpenJDK Runtime Environment
JVM: OpenJDK 64-Bit Server VM
Default Encoding: UTF-8
Language: ja
Country: JP
--></g></svg>