<?xml version="1.0" encoding="UTF-8" standalone="no"?><svg xmlns="http://www.w3.org/2000/svg" xmlns:xlink="http://www.w3.org/1999/xlink" contentStyleType="text/css" height="508px" preserveAspectRatio="none" style="width:440px;height:508px;background:#FFFFFF;" version="1.1" viewBox="0 0 440 508" width="440px" zoomAndPan="magnify"><defs/><g><!--MD5=[e6c131967da0181654129b9ee700e883]
class ユーザー--><g id="elem_ユーザー"><rect codeLine="2" fill="#F1F1F1" height="80.9766" id="ユーザー" rx="2.5" ry="2.5" style="stroke:#181818;stroke-width:0.5;" width="88" x="7" y="40"/><ellipse cx="22" cy="56" fill="#ADD1B2" rx="11" ry="11" style="stroke:#181818;stroke-width:1.0;"/><path d="M25.6143,62.5 L17.8945,62.5 L17.8945,50.1069 L25.6143,50.1069 L25.6143,52.2651 L20.3433,52.2651 L20.3433,54.938 L25.1162,54.938 L25.1162,57.0962 L20.3433,57.0962 L20.3433,60.3418 L25.6143,60.3418 Z " fill="#000000"/><text fill="#000000" font-family="sans-serif" font-size="14" lengthAdjust="spacing" textLength="56" x="36" y="61.291">ユーザー</text><line style="stroke:#181818;stroke-width:0.5;" x1="8" x2="94" y1="72" y2="72"/><ellipse cx="18" cy="83" fill="#000000" rx="3" ry="3" style="stroke:#000000;stroke-width:1.0;"/><text fill="#000000" font-family="sans-serif" font-size="14" lengthAdjust="spacing" textLength="14" x="27" y="89.5352">ID</text><line style="stroke:#181818;stroke-width:1.0;" x1="8" x2="94" y1="96.4883" y2="96.4883"/><ellipse cx="18" cy="107.4883" fill="#000000" rx="3" ry="3" style="stroke:#000000;stroke-width:1.0;"/><text fill="#000000" font-family="sans-serif" font-size="14" lengthAdjust="spacing" textLength="42" x="27" y="114.0234">表示名</text></g><!--MD5=[68b9cae357ee1e35ec1bf57d7fe5aa5e]
class オブジェクト--><g id="elem_オブジェクト"><rect codeLine="8" fill="#F1F1F1" height="146.9297" id="オブジェクト" rx="2.5" ry="2.5" style="stroke:#181818;stroke-width:0.5;" width="124" x="130" y="7"/><ellipse cx="148.6" cy="23" fill="#ADD1B2" rx="11" ry="11" style="stroke:#181818;stroke-width:1.0;"/><path d="M152.2143,29.5 L144.4945,29.5 L144.4945,17.1069 L152.2143,17.1069 L152.2143,19.2651 L146.9433,19.2651 L146.9433,21.938 L151.7162,21.938 L151.7162,24.0962 L146.9433,24.0962 L146.9433,27.3418 L152.2143,27.3418 Z " fill="#000000"/><text fill="#000000" font-family="sans-serif" font-size="14" lengthAdjust="spacing" textLength="84" x="163.4" y="28.291">オブジェクト</text><line style="stroke:#181818;stroke-width:0.5;" x1="131" x2="253" y1="39" y2="39"/><ellipse cx="141" cy="50" fill="#000000" rx="3" ry="3" style="stroke:#000000;stroke-width:1.0;"/><text fill="#000000" font-family="sans-serif" font-size="14" lengthAdjust="spacing" textLength="14" x="150" y="56.5352">ID</text><line style="stroke:#181818;stroke-width:1.0;" x1="131" x2="253" y1="63.4883" y2="63.4883"/><ellipse cx="141" cy="74.4883" fill="#000000" rx="3" ry="3" style="stroke:#000000;stroke-width:1.0;"/><text fill="#000000" font-family="sans-serif" font-size="14" lengthAdjust="spacing" textLength="98" x="150" y="81.0234">ディレクトリID</text><ellipse cx="141" cy="90.9766" fill="#000000" rx="3" ry="3" style="stroke:#000000;stroke-width:1.0;"/><text fill="#000000" font-family="sans-serif" font-size="14" lengthAdjust="spacing" textLength="70" x="150" y="97.5117">ファイルID</text><ellipse cx="141" cy="107.4648" fill="#000000" rx="3" ry="3" style="stroke:#000000;stroke-width:1.0;"/><text fill="#000000" font-family="sans-serif" font-size="14" lengthAdjust="spacing" textLength="28" x="150" y="114">親ID</text><ellipse cx="141" cy="123.9531" fill="#000000" rx="3" ry="3" style="stroke:#000000;stroke-width:1.0;"/><text fill="#000000" font-family="sans-serif" font-size="14" lengthAdjust="spacing" textLength="84" x="150" y="130.4883">ルートフラグ</text><ellipse cx="141" cy="140.4414" fill="#000000" rx="3" ry="3" style="stroke:#000000;stroke-width:1.0;"/><text fill="#000000" font-family="sans-serif" font-size="14" lengthAdjust="spacing" textLength="56" x="150" y="146.9766">作成者ID</text></g><!--MD5=[7976941778f6fa4dada80cf03230a3f9]
class ディレクトリ--><g id="elem_ディレクトリ"><rect codeLine="18" fill="#F1F1F1" height="80.9766" id="ディレクトリ" rx="2.5" ry="2.5" style="stroke:#181818;stroke-width:0.5;" width="124" x="50" y="214"/><ellipse cx="68.6" cy="230" fill="#ADD1B2" rx="11" ry="11" style="stroke:#181818;stroke-width:1.0;"/><path d="M72.2143,236.5 L64.4945,236.5 L64.4945,224.1069 L72.2143,224.1069 L72.2143,226.2651 L66.9433,226.2651 L66.9433,228.938 L71.7162,228.938 L71.7162,231.0962 L66.9433,231.0962 L66.9433,234.3418 L72.2143,234.3418 Z " fill="#000000"/><text fill="#000000" font-family="sans-serif" font-size="14" lengthAdjust="spacing" textLength="84" x="83.4" y="235.291">ディレクトリ</text><line style="stroke:#181818;stroke-width:0.5;" x1="51" x2="173" y1="246" y2="246"/><ellipse cx="61" cy="257" fill="#000000" rx="3" ry="3" style="stroke:#000000;stroke-width:1.0;"/><text fill="#000000" font-family="sans-serif" font-size="14" lengthAdjust="spacing" textLength="14" x="70" y="263.5352">ID</text><line style="stroke:#181818;stroke-width:1.0;" x1="51" x2="173" y1="270.4883" y2="270.4883"/><ellipse cx="61" cy="281.4883" fill="#000000" rx="3" ry="3" style="stroke:#000000;stroke-width:1.0;"/><text fill="#000000" font-family="sans-serif" font-size="14" lengthAdjust="spacing" textLength="98" x="70" y="288.0234">ディレクトリ名</text></g><!--MD5=[830c3e4671114de6e5701af3f350aea2]
class ドキュメント--><g id="elem_ドキュメント"><rect codeLine="24" fill="#F1F1F1" height="80.9766" id="ドキュメント" rx="2.5" ry="2.5" style="stroke:#181818;stroke-width:0.5;" width="124" x="209" y="214"/><ellipse cx="227.6" cy="230" fill="#ADD1B2" rx="11" ry="11" style="stroke:#181818;stroke-width:1.0;"/><path d="M231.2143,236.5 L223.4945,236.5 L223.4945,224.1069 L231.2143,224.1069 L231.2143,226.2651 L225.9433,226.2651 L225.9433,228.938 L230.7162,228.938 L230.7162,231.0962 L225.9433,231.0962 L225.9433,234.3418 L231.2143,234.3418 Z " fill="#000000"/><text fill="#000000" font-family="sans-serif" font-size="14" lengthAdjust="spacing" textLength="84" x="242.4" y="235.291">ドキュメント</text><line style="stroke:#181818;stroke-width:0.5;" x1="210" x2="332" y1="246" y2="246"/><ellipse cx="220" cy="257" fill="#000000" rx="3" ry="3" style="stroke:#000000;stroke-width:1.0;"/><text fill="#000000" font-family="sans-serif" font-size="14" lengthAdjust="spacing" textLength="14" x="229" y="263.5352">ID</text><line style="stroke:#181818;stroke-width:1.0;" x1="210" x2="332" y1="270.4883" y2="270.4883"/><ellipse cx="220" cy="281.4883" fill="#000000" rx="3" ry="3" style="stroke:#000000;stroke-width:1.0;"/><text fill="#000000" font-family="sans-serif" font-size="14" lengthAdjust="spacing" textLength="98" x="229" y="288.0234">ドキュメント名</text></g><!--MD5=[6e1bcf15a2a55ff5968ab9b0b0e2a405]
class ドキュメント履歴--><g id="elem_ドキュメント履歴"><rect codeLine="30" fill="#F1F1F1" height="146.9297" id="ドキュメント履歴" rx="2.5" ry="2.5" style="stroke:#181818;stroke-width:0.5;" width="144" x="199" y="355"/><ellipse cx="214" cy="371" fill="#ADD1B2" rx="11" ry="11" style="stroke:#181818;stroke-width:1.0;"/><path d="M217.6143,377.5 L209.8945,377.5 L209.8945,365.1069 L217.6143,365.1069 L217.6143,367.2651 L212.3433,367.2651 L212.3433,369.938 L217.1162,369.938 L217.1162,372.0962 L212.3433,372.0962 L212.3433,375.3418 L217.6143,375.3418 Z " fill="#000000"/><text fill="#000000" font-family="sans-serif" font-size="14" lengthAdjust="spacing" textLength="112" x="228" y="376.291">ドキュメント履歴</text><line style="stroke:#181818;stroke-width:0.5;" x1="200" x2="342" y1="387" y2="387"/><ellipse cx="210" cy="398" fill="#000000" rx="3" ry="3" style="stroke:#000000;stroke-width:1.0;"/><text fill="#000000" font-family="sans-serif" font-size="14" lengthAdjust="spacing" textLength="14" x="219" y="404.5352">ID</text><line style="stroke:#181818;stroke-width:1.0;" x1="200" x2="342" y1="411.4883" y2="411.4883"/><ellipse cx="210" cy="422.4883" fill="#000000" rx="3" ry="3" style="stroke:#000000;stroke-width:1.0;"/><text fill="#000000" font-family="sans-serif" font-size="14" lengthAdjust="spacing" textLength="98" x="219" y="429.0234">ドキュメントID</text><ellipse cx="210" cy="438.9766" fill="#000000" rx="3" ry="3" style="stroke:#000000;stroke-width:1.0;"/><text fill="#000000" font-family="sans-serif" font-size="14" lengthAdjust="spacing" textLength="84" x="219" y="445.5117">テキスト情報</text><ellipse cx="210" cy="455.4648" fill="#000000" rx="3" ry="3" style="stroke:#000000;stroke-width:1.0;"/><text fill="#000000" font-family="sans-serif" font-size="14" lengthAdjust="spacing" textLength="70" x="219" y="462">最新フラグ</text><ellipse cx="210" cy="471.9531" fill="#000000" rx="3" ry="3" style="stroke:#000000;stroke-width:1.0;"/><text fill="#000000" font-family="sans-serif" font-size="14" lengthAdjust="spacing" textLength="56" x="219" y="478.4883">更新者ID</text><ellipse cx="210" cy="488.4414" fill="#000000" rx="3" ry="3" style="stroke:#000000;stroke-width:1.0;"/><text fill="#000000" font-family="sans-serif" font-size="14" lengthAdjust="spacing" textLength="56" x="219" y="494.9766">更新日時</text></g><!--MD5=[003d9864db31d3ee0391c6780c6e21da]
class オブジェクト経路--><g id="elem_オブジェクト経路"><rect codeLine="40" fill="#F1F1F1" height="97.4648" id="オブジェクト経路" rx="2.5" ry="2.5" style="stroke:#181818;stroke-width:0.5;" width="144" x="289" y="32"/><ellipse cx="304" cy="48" fill="#ADD1B2" rx="11" ry="11" style="stroke:#181818;stroke-width:1.0;"/><path d="M307.6143,54.5 L299.8945,54.5 L299.8945,42.1069 L307.6143,42.1069 L307.6143,44.2651 L302.3433,44.2651 L302.3433,46.938 L307.1162,46.938 L307.1162,49.0962 L302.3433,49.0962 L302.3433,52.3418 L307.6143,52.3418 Z " fill="#000000"/><text fill="#000000" font-family="sans-serif" font-size="14" lengthAdjust="spacing" textLength="112" x="318" y="53.291">オブジェクト経路</text><line style="stroke:#181818;stroke-width:0.5;" x1="290" x2="432" y1="64" y2="64"/><ellipse cx="300" cy="75" fill="#000000" rx="3" ry="3" style="stroke:#000000;stroke-width:1.0;"/><text fill="#000000" font-family="sans-serif" font-size="14" lengthAdjust="spacing" textLength="14" x="309" y="81.5352">ID</text><line style="stroke:#181818;stroke-width:1.0;" x1="290" x2="432" y1="88.4883" y2="88.4883"/><ellipse cx="300" cy="99.4883" fill="#000000" rx="3" ry="3" style="stroke:#000000;stroke-width:1.0;"/><text fill="#000000" font-family="sans-serif" font-size="14" lengthAdjust="spacing" textLength="42" x="309" y="106.0234">先祖ID</text><ellipse cx="300" cy="115.9766" fill="#000000" rx="3" ry="3" style="stroke:#000000;stroke-width:1.0;"/><text fill="#000000" font-family="sans-serif" font-size="14" lengthAdjust="spacing" textLength="42" x="309" y="122.5117">子孫ID</text></g><!--MD5=[6f5a078544c23f1b8a880f14ce581674]
link ユーザー to オブジェクト--><g id="link_ユーザー_オブジェクト"><path codeLine="47" d="M103.23,80.5 C109.34,80.5 115.45,80.5 121.56,80.5 " fill="none" id="ユーザー-オブジェクト" style="stroke:#181818;stroke-width:1.0;"/><line style="stroke:#181818;stroke-width:1.0;" x1="121.9" x2="129.9" y1="80.5" y2="74.5"/><line style="stroke:#181818;stroke-width:1.0;" x1="121.9" x2="129.9" y1="80.5" y2="86.5"/><line style="stroke:#181818;stroke-width:1.0;" x1="121.9" x2="129.9" y1="80.5" y2="80.5"/><line style="stroke:#181818;stroke-width:1.0;" x1="119.9" x2="119.9" y1="76.5" y2="84.5"/><line style="stroke:#181818;stroke-width:1.0;" x1="99.06" x2="99.06" y1="84.5" y2="76.5"/><line style="stroke:#181818;stroke-width:1.0;" x1="102.06" x2="102.06" y1="84.5" y2="76.5"/><line style="stroke:#181818;stroke-width:1.0;" x1="103.06" x2="95.06" y1="80.5" y2="80.5"/></g><!--MD5=[c51a54e285af3209fc0f6ee63e715d4d]
link オブジェクト to ドキュメント--><g id="link_オブジェクト_ドキュメント"><path codeLine="48" d="M229.02,162.1 C235.97,177.24 243.03,192.6 249.32,206.3 " fill="none" id="オブジェクト-ドキュメント" style="stroke:#181818;stroke-width:1.0;"/><line style="stroke:#181818;stroke-width:1.0;" x1="248.1515" x2="252.73" y1="203.7281" y2="213.73"/><ellipse cx="248.1515" cy="203.7281" fill="none" rx="4" ry="4" style="stroke:#181818;stroke-width:1.0;"/><line style="stroke:#181818;stroke-width:1.0;" x1="254.7022" x2="247.4281" y1="208.4281" y2="211.7578"/><line style="stroke:#181818;stroke-width:1.0;" x1="223.5365" x2="230.8051" y1="159.7451" y2="156.4035"/><line style="stroke:#181818;stroke-width:1.0;" x1="224.7896" x2="232.0582" y1="162.4709" y2="159.1293"/><line style="stroke:#181818;stroke-width:1.0;" x1="228.8416" x2="225.5" y1="161.7087" y2="154.44"/></g><!--MD5=[64d42a1b4319bf6da5e5903413501e82]
link オブジェクト to ディレクトリ--><g id="link_オブジェクト_ディレクトリ"><path codeLine="49" d="M154.51,162.1 C147.47,177.24 140.33,192.6 133.95,206.3 " fill="none" id="オブジェクト-ディレクトリ" style="stroke:#181818;stroke-width:1.0;"/><line style="stroke:#181818;stroke-width:1.0;" x1="135.1345" x2="130.5" y1="203.754" y2="213.73"/><ellipse cx="135.1345" cy="203.754" fill="none" rx="4" ry="4" style="stroke:#181818;stroke-width:1.0;"/><line style="stroke:#181818;stroke-width:1.0;" x1="135.8129" x2="128.5576" y1="211.7876" y2="208.4171"/><line style="stroke:#181818;stroke-width:1.0;" x1="152.7571" x2="160.0124" y1="156.3824" y2="159.7529"/><line style="stroke:#181818;stroke-width:1.0;" x1="151.4931" x2="158.7484" y1="159.1031" y2="162.4737"/><line style="stroke:#181818;stroke-width:1.0;" x1="154.6994" x2="158.07" y1="161.6953" y2="154.44"/></g><!--MD5=[fcbe8daaf8288e27e650363f38da0cb4]
link オブジェクト to オブジェクト経路--><g id="link_オブジェクト_オブジェクト経路"><path codeLine="50" d="M262.08,134.02 C273.94,136.66 285.79,136.04 297.65,132.17 " fill="none" id="オブジェクト-オブジェクト経路" style="stroke:#181818;stroke-width:1.0;"/><line style="stroke:#181818;stroke-width:1.0;" x1="297.9773" x2="303.2782" y1="132.0423" y2="123.563"/><line style="stroke:#181818;stroke-width:1.0;" x1="297.9773" x2="307.6018" y1="132.0423" y2="134.757"/><line style="stroke:#181818;stroke-width:1.0;" x1="297.9773" x2="305.44" y1="132.0423" y2="129.16"/><line style="stroke:#181818;stroke-width:1.0;" x1="294.6704" x2="297.5528" y1="129.0316" y2="136.4943"/><line style="stroke:#181818;stroke-width:1.0;" x1="261.7422" x2="252.4017" y1="133.9378" y2="137.5091"/><line style="stroke:#181818;stroke-width:1.0;" x1="261.7422" x2="255.6983" y1="133.9378" y2="125.9709"/><line style="stroke:#181818;stroke-width:1.0;" x1="261.7422" x2="254.05" y1="133.9378" y2="131.74"/><line style="stroke:#181818;stroke-width:1.0;" x1="262.5664" x2="264.7641" y1="138.3333" y2="130.6411"/></g><!--MD5=[fcbe8daaf8288e27e650363f38da0cb4]
link オブジェクト to オブジェクト経路--><g id="link_オブジェクト_オブジェクト経路"><path codeLine="51" d="M262.08,26.98 C273.94,24.34 285.79,24.96 297.65,28.83 " fill="none" id="オブジェクト-オブジェクト経路-1" style="stroke:#181818;stroke-width:1.0;"/><line style="stroke:#181818;stroke-width:1.0;" x1="297.9773" x2="307.6018" y1="28.9577" y2="26.243"/><line style="stroke:#181818;stroke-width:1.0;" x1="297.9773" x2="303.2782" y1="28.9577" y2="37.437"/><line style="stroke:#181818;stroke-width:1.0;" x1="297.9773" x2="305.44" y1="28.9577" y2="31.84"/><line style="stroke:#181818;stroke-width:1.0;" x1="297.5528" x2="294.6704" y1="24.5057" y2="31.9684"/><line style="stroke:#181818;stroke-width:1.0;" x1="261.7422" x2="255.6983" y1="27.0622" y2="35.0291"/><line style="stroke:#181818;stroke-width:1.0;" x1="261.7422" x2="252.4017" y1="27.0622" y2="23.4909"/><line style="stroke:#181818;stroke-width:1.0;" x1="261.7422" x2="254.05" y1="27.0622" y2="29.26"/><line style="stroke:#181818;stroke-width:1.0;" x1="264.7641" x2="262.5664" y1="30.3589" y2="22.6667"/></g><!--MD5=[b5ca547705443d219febdaff026a2460]
link ドキュメント to ドキュメント履歴--><g id="link_ドキュメント_ドキュメント履歴"><path codeLine="52" d="M271,303.49 C271,316.89 271,331.84 271,346.58 " fill="none" id="ドキュメント-ドキュメント履歴" style="stroke:#181818;stroke-width:1.0;"/><line style="stroke:#181818;stroke-width:1.0;" x1="271" x2="277" y1="346.74" y2="354.74"/><line style="stroke:#181818;stroke-width:1.0;" x1="271" x2="265" y1="346.74" y2="354.74"/><line style="stroke:#181818;stroke-width:1.0;" x1="271" x2="271" y1="346.74" y2="354.74"/><line style="stroke:#181818;stroke-width:1.0;" x1="275" x2="267" y1="344.74" y2="344.74"/><line style="stroke:#181818;stroke-width:1.0;" x1="267" x2="275" y1="299.39" y2="299.39"/><line style="stroke:#181818;stroke-width:1.0;" x1="267" x2="275" y1="302.39" y2="302.39"/><line style="stroke:#181818;stroke-width:1.0;" x1="271" x2="271" y1="303.39" y2="295.39"/></g><!--MD5=[ca65bfdf232c6b16c5c356eaf5e291e5]
@startuml

entity "ユーザー" {
    *ID
    - -
    *表示名
}

entity "オブジェクト" {
    *ID
    - -
    *ディレクトリID
    *ファイルID
    *親ID
    *ルートフラグ
    *作成者ID
}

entity "ディレクトリ" {
    *ID
    - -
    *ディレクトリ名
}

entity "ドキュメント" {
    *ID
    - -
    *ドキュメント名
}

entity "ドキュメント履歴" {
    *ID
    - -
    *ドキュメントID
    *テキスト情報
    *最新フラグ
    *更新者ID
    *更新日時
}

entity "オブジェクト経路" {
    *ID
    - -
    *先祖ID
    *子孫ID
}

ユーザー ||-r-|{ オブジェクト
オブジェクト ||-d-o| ドキュメント
オブジェクト ||-d-o| ディレクトリ
オブジェクト }|-r-|{ オブジェクト経路
オブジェクト }|-r-|{ オブジェクト経路
ドキュメント ||-d-|{ ドキュメント履歴

@enduml

PlantUML version 1.2022.6(Wed Jun 22 02:34:49 JST 2022)
(GPL source distribution)
Java Runtime: OpenJDK Runtime Environment
JVM: OpenJDK 64-Bit Server VM
Default Encoding: UTF-8
Language: ja
Country: JP
--></g></svg>