<?xml version="1.0" encoding="UTF-8" standalone="no"?><svg xmlns="http://www.w3.org/2000/svg" xmlns:xlink="http://www.w3.org/1999/xlink" contentStyleType="text/css" height="193px" preserveAspectRatio="none" style="width:297px;height:193px;background:#FFFFFF;" version="1.1" viewBox="0 0 297 193" width="297px" zoomAndPan="magnify"><defs/><g><!--MD5=[6f7d17e6b9a5caf87aad02214b60e0a5]
class リマインド--><g id="elem_リマインド"><rect codeLine="2" fill="#F1F1F1" height="179.9063" id="リマインド" rx="2.5" ry="2.5" style="stroke:#181818;stroke-width:0.5;" width="166" x="7" y="7"/><ellipse cx="50.8" cy="23" fill="#ADD1B2" rx="11" ry="11" style="stroke:#181818;stroke-width:1.0;"/><path d="M54.4143,29.5 L46.6945,29.5 L46.6945,17.1069 L54.4143,17.1069 L54.4143,19.2651 L49.1433,19.2651 L49.1433,21.938 L53.9162,21.938 L53.9162,24.0962 L49.1433,24.0962 L49.1433,27.3418 L54.4143,27.3418 Z " fill="#000000"/><text fill="#000000" font-family="sans-serif" font-size="14" lengthAdjust="spacing" textLength="70" x="71.2" y="28.291">リマインド</text><line style="stroke:#181818;stroke-width:0.5;" x1="8" x2="172" y1="39" y2="39"/><ellipse cx="18" cy="50" fill="#000000" rx="3" ry="3" style="stroke:#000000;stroke-width:1.0;"/><text fill="#000000" font-family="sans-serif" font-size="14" lengthAdjust="spacing" textLength="14" x="27" y="56.5352">ID</text><line style="stroke:#181818;stroke-width:1.0;" x1="8" x2="172" y1="63.4883" y2="63.4883"/><ellipse cx="18" cy="74.4883" fill="#000000" rx="3" ry="3" style="stroke:#000000;stroke-width:1.0;"/><text fill="#000000" font-family="sans-serif" font-size="14" lengthAdjust="spacing" textLength="98" x="27" y="81.0234">作成者ユーザー</text><ellipse cx="18" cy="90.9766" fill="#000000" rx="3" ry="3" style="stroke:#000000;stroke-width:1.0;"/><text fill="#000000" font-family="sans-serif" font-size="14" lengthAdjust="spacing" textLength="84" x="27" y="97.5117">宛先チャネル</text><ellipse cx="18" cy="107.4648" fill="#000000" rx="3" ry="3" style="stroke:#000000;stroke-width:1.0;"/><text fill="#000000" font-family="sans-serif" font-size="14" lengthAdjust="spacing" textLength="70" x="27" y="114">メッセージ</text><ellipse cx="18" cy="123.9531" fill="#000000" rx="3" ry="3" style="stroke:#000000;stroke-width:1.0;"/><text fill="#000000" font-family="sans-serif" font-size="14" lengthAdjust="spacing" textLength="56" x="27" y="130.4883">チャネル</text><ellipse cx="18" cy="140.4414" fill="#000000" rx="3" ry="3" style="stroke:#000000;stroke-width:1.0;"/><text fill="#000000" font-family="sans-serif" font-size="14" lengthAdjust="spacing" textLength="42" x="27" y="146.9766">頻度ID</text><ellipse cx="18" cy="156.9297" fill="#000000" rx="3" ry="3" style="stroke:#000000;stroke-width:1.0;"/><text fill="#000000" font-family="sans-serif" font-size="14" lengthAdjust="spacing" textLength="126" x="27" y="163.4648">リマインド実行日時</text><ellipse cx="18" cy="173.418" fill="#000000" rx="3" ry="3" style="stroke:#000000;stroke-width:1.0;"/><text fill="#000000" font-family="sans-serif" font-size="14" lengthAdjust="spacing" textLength="140" x="27" y="179.9531">リマインダー作成日時</text></g><!--MD5=[e808c9506337d616aadcee338434e3e1]
class 頻度--><g id="elem_頻度"><rect codeLine="14" fill="#F1F1F1" height="97.4648" id="頻度" rx="2.5" ry="2.5" style="stroke:#181818;stroke-width:0.5;" width="82" x="208" y="48.5"/><ellipse cx="232.9" cy="64.5" fill="#ADD1B2" rx="11" ry="11" style="stroke:#181818;stroke-width:1.0;"/><path d="M236.5143,71 L228.7945,71 L228.7945,58.6069 L236.5143,58.6069 L236.5143,60.7651 L231.2433,60.7651 L231.2433,63.438 L236.0162,63.438 L236.0162,65.5962 L231.2433,65.5962 L231.2433,68.8418 L236.5143,68.8418 Z " fill="#000000"/><text fill="#000000" font-family="sans-serif" font-size="14" lengthAdjust="spacing" textLength="28" x="249.1" y="69.791">頻度</text><line style="stroke:#181818;stroke-width:0.5;" x1="209" x2="289" y1="80.5" y2="80.5"/><ellipse cx="219" cy="91.5" fill="#000000" rx="3" ry="3" style="stroke:#000000;stroke-width:1.0;"/><text fill="#000000" font-family="sans-serif" font-size="14" lengthAdjust="spacing" textLength="14" x="228" y="98.0352">ID</text><line style="stroke:#181818;stroke-width:1.0;" x1="209" x2="289" y1="104.9883" y2="104.9883"/><ellipse cx="219" cy="115.9883" fill="#000000" rx="3" ry="3" style="stroke:#000000;stroke-width:1.0;"/><text fill="#000000" font-family="sans-serif" font-size="14" lengthAdjust="spacing" textLength="56" x="228" y="122.5234">頻度種別</text><text fill="#000000" font-family="sans-serif" font-size="14" lengthAdjust="spacing" textLength="21" x="228" y="139.0117">*値</text></g><!--MD5=[cb9abce6bd9b89eeb40861d5716e06f5]
link リマインド to 頻度--><g id="link_リマインド_頻度"><path codeLine="22" d="M180.26,97 C187.02,97 193.77,97 200.53,97 " fill="none" id="リマインド-頻度" style="stroke:#181818;stroke-width:1.0;"/><line style="stroke:#181818;stroke-width:1.0;" x1="203.86" x2="203.86" y1="93" y2="101"/><line style="stroke:#181818;stroke-width:1.0;" x1="200.86" x2="200.86" y1="93" y2="101"/><line style="stroke:#181818;stroke-width:1.0;" x1="199.86" x2="207.86" y1="97" y2="97"/><line style="stroke:#181818;stroke-width:1.0;" x1="177.23" x2="177.23" y1="101" y2="93"/><line style="stroke:#181818;stroke-width:1.0;" x1="180.23" x2="180.23" y1="101" y2="93"/><line style="stroke:#181818;stroke-width:1.0;" x1="181.23" x2="173.23" y1="97" y2="97"/></g><!--MD5=[38bf905b25d68eb9c1f772011fc69586]
@startuml

entity "リマインド" {
    *ID
    - -
    *作成者ユーザー
    *宛先チャネル
    *メッセージ
    *チャネル
    *頻度ID
    *リマインド実行日時
    *リマインダー作成日時
}

entity "頻度" {
    *ID
    - -
    *頻度種別
    *値
}


リマインド ||-r-|| 頻度

@enduml

PlantUML version 1.2022.6(Wed Jun 22 02:34:49 JST 2022)
(GPL source distribution)
Java Runtime: OpenJDK Runtime Environment
JVM: OpenJDK 64-Bit Server VM
Default Encoding: UTF-8
Language: ja
Country: JP
--></g></svg>