<?xml version="1.0" encoding="UTF-8" standalone="no"?><svg xmlns="http://www.w3.org/2000/svg" xmlns:xlink="http://www.w3.org/1999/xlink" contentStyleType="text/css" height="665px" preserveAspectRatio="none" style="width:152px;height:665px;background:#FFFFFF;" version="1.1" viewBox="0 0 152 665" width="152px" zoomAndPan="magnify"><defs/><g><!--MD5=[730eebe7647dbd754a69b100681afe07]
class 注文--><g id="elem_注文"><rect codeLine="8" fill="#F1F1F1" height="163.418" id="注文" rx="2.5" ry="2.5" style="stroke:#181818;stroke-width:0.5;" width="124" x="14" y="7"/><ellipse cx="57.8" cy="23" fill="#ADD1B2" rx="11" ry="11" style="stroke:#181818;stroke-width:1.0;"/><path d="M61.4143,29.5 L53.6945,29.5 L53.6945,17.1069 L61.4143,17.1069 L61.4143,19.2651 L56.1433,19.2651 L56.1433,21.938 L60.9162,21.938 L60.9162,24.0962 L56.1433,24.0962 L56.1433,27.3418 L61.4143,27.3418 Z " fill="#000000"/><text fill="#000000" font-family="sans-serif" font-size="14" lengthAdjust="spacing" textLength="28" x="78.2" y="28.291">注文</text><line style="stroke:#181818;stroke-width:0.5;" x1="15" x2="137" y1="39" y2="39"/><ellipse cx="25" cy="50" fill="#000000" rx="3" ry="3" style="stroke:#000000;stroke-width:1.0;"/><text fill="#000000" font-family="sans-serif" font-size="14" lengthAdjust="spacing" textLength="14" x="34" y="56.5352">ID</text><line style="stroke:#181818;stroke-width:1.0;" x1="15" x2="137" y1="63.4883" y2="63.4883"/><ellipse cx="25" cy="74.4883" fill="#000000" rx="3" ry="3" style="stroke:#000000;stroke-width:1.0;"/><text fill="#000000" font-family="sans-serif" font-size="14" lengthAdjust="spacing" textLength="70" x="34" y="81.0234">購入者氏名</text><ellipse cx="25" cy="90.9766" fill="#000000" rx="3" ry="3" style="stroke:#000000;stroke-width:1.0;"/><text fill="#000000" font-family="sans-serif" font-size="14" lengthAdjust="spacing" textLength="70" x="34" y="97.5117">購入者番号</text><ellipse cx="25" cy="107.4648" fill="#000000" rx="3" ry="3" style="stroke:#000000;stroke-width:1.0;"/><text fill="#000000" font-family="sans-serif" font-size="14" lengthAdjust="spacing" textLength="42" x="34" y="114">購入日</text><ellipse cx="25" cy="123.9531" fill="#000000" rx="3" ry="3" style="stroke:#000000;stroke-width:1.0;"/><text fill="#000000" font-family="sans-serif" font-size="14" lengthAdjust="spacing" textLength="70" x="34" y="130.4883">会員コード</text><ellipse cx="25" cy="140.4414" fill="#000000" rx="3" ry="3" style="stroke:#000000;stroke-width:1.0;"/><text fill="#000000" font-family="sans-serif" font-size="14" lengthAdjust="spacing" textLength="98" x="34" y="146.9766">店内利用フラグ</text><ellipse cx="25" cy="156.9297" fill="#000000" rx="3" ry="3" style="stroke:#000000;stroke-width:1.0;"/><text fill="#000000" font-family="sans-serif" font-size="14" lengthAdjust="spacing" textLength="84" x="34" y="163.4648">支払いフラグ</text></g><!--MD5=[ed58caf23a77469457942e2e38207547]
class 会員--><g id="elem_会員"><rect codeLine="19" fill="#F1F1F1" height="146.9297" id="会員" rx="2.5" ry="2.5" style="stroke:#181818;stroke-width:0.5;" width="138" x="7" y="230"/><ellipse cx="57.75" cy="246" fill="#ADD1B2" rx="11" ry="11" style="stroke:#181818;stroke-width:1.0;"/><path d="M61.3643,252.5 L53.6445,252.5 L53.6445,240.1069 L61.3643,240.1069 L61.3643,242.2651 L56.0933,242.2651 L56.0933,244.938 L60.8662,244.938 L60.8662,247.0962 L56.0933,247.0962 L56.0933,250.3418 L61.3643,250.3418 Z " fill="#000000"/><text fill="#000000" font-family="sans-serif" font-size="14" lengthAdjust="spacing" textLength="28" x="78.25" y="251.291">会員</text><line style="stroke:#181818;stroke-width:0.5;" x1="8" x2="144" y1="262" y2="262"/><ellipse cx="18" cy="273" fill="#000000" rx="3" ry="3" style="stroke:#000000;stroke-width:1.0;"/><text fill="#000000" font-family="sans-serif" font-size="14" lengthAdjust="spacing" textLength="14" x="27" y="279.5352">ID</text><line style="stroke:#181818;stroke-width:1.0;" x1="8" x2="144" y1="286.4883" y2="286.4883"/><ellipse cx="18" cy="297.4883" fill="#000000" rx="3" ry="3" style="stroke:#000000;stroke-width:1.0;"/><text fill="#000000" font-family="sans-serif" font-size="14" lengthAdjust="spacing" textLength="70" x="27" y="304.0234">会員コード</text><ellipse cx="18" cy="313.9766" fill="#000000" rx="3" ry="3" style="stroke:#000000;stroke-width:1.0;"/><text fill="#000000" font-family="sans-serif" font-size="14" lengthAdjust="spacing" textLength="28" x="27" y="320.5117">氏名</text><ellipse cx="18" cy="330.4648" fill="#000000" rx="3" ry="3" style="stroke:#000000;stroke-width:1.0;"/><text fill="#000000" font-family="sans-serif" font-size="14" lengthAdjust="spacing" textLength="63" x="27" y="337">氏名_かな</text><ellipse cx="18" cy="346.9531" fill="#000000" rx="3" ry="3" style="stroke:#000000;stroke-width:1.0;"/><text fill="#000000" font-family="sans-serif" font-size="14" lengthAdjust="spacing" textLength="56" x="27" y="353.4883">電話番号</text><ellipse cx="18" cy="363.4414" fill="#000000" rx="3" ry="3" style="stroke:#000000;stroke-width:1.0;"/><text fill="#000000" font-family="sans-serif" font-size="14" lengthAdjust="spacing" textLength="112" x="27" y="369.9766">会員ランクコード</text></g><!--MD5=[b25ed8ecd8d8e5c7c35824a4b4a3dc5e]
class 会員ランク--><g id="elem_会員ランク"><rect codeLine="29" fill="#F1F1F1" height="80.9766" id="会員ランク" rx="2.5" ry="2.5" style="stroke:#181818;stroke-width:0.5;" width="110" x="21" y="437"/><ellipse cx="39.6" cy="453" fill="#ADD1B2" rx="11" ry="11" style="stroke:#181818;stroke-width:1.0;"/><path d="M43.2143,459.5 L35.4945,459.5 L35.4945,447.1069 L43.2143,447.1069 L43.2143,449.2651 L37.9433,449.2651 L37.9433,451.938 L42.7162,451.938 L42.7162,454.0962 L37.9433,454.0962 L37.9433,457.3418 L43.2143,457.3418 Z " fill="#000000"/><text fill="#000000" font-family="sans-serif" font-size="14" lengthAdjust="spacing" textLength="70" x="54.4" y="458.291">会員ランク</text><line style="stroke:#181818;stroke-width:0.5;" x1="22" x2="130" y1="469" y2="469"/><ellipse cx="32" cy="480" fill="#000000" rx="3" ry="3" style="stroke:#000000;stroke-width:1.0;"/><text fill="#000000" font-family="sans-serif" font-size="14" lengthAdjust="spacing" textLength="84" x="41" y="486.5352">ランクコード</text><ellipse cx="32" cy="496.4883" fill="#000000" rx="3" ry="3" style="stroke:#000000;stroke-width:1.0;"/><text fill="#000000" font-family="sans-serif" font-size="14" lengthAdjust="spacing" textLength="56" x="41" y="503.0234">ランク名</text><line style="stroke:#181818;stroke-width:0.5;" x1="22" x2="130" y1="509.9766" y2="509.9766"/></g><!--MD5=[06e6167bdec4dfaa12ef5533db201e84]
class 割引率--><g id="elem_割引率"><rect codeLine="34" fill="#F1F1F1" height="80.9766" id="割引率" rx="2.5" ry="2.5" style="stroke:#181818;stroke-width:0.5;" width="138" x="7" y="578"/><ellipse cx="50.8" cy="594" fill="#ADD1B2" rx="11" ry="11" style="stroke:#181818;stroke-width:1.0;"/><path d="M54.4143,600.5 L46.6945,600.5 L46.6945,588.1069 L54.4143,588.1069 L54.4143,590.2651 L49.1433,590.2651 L49.1433,592.938 L53.9162,592.938 L53.9162,595.0962 L49.1433,595.0962 L49.1433,598.3418 L54.4143,598.3418 Z " fill="#000000"/><text fill="#000000" font-family="sans-serif" font-size="14" lengthAdjust="spacing" textLength="42" x="71.2" y="599.291">割引率</text><line style="stroke:#181818;stroke-width:0.5;" x1="8" x2="144" y1="610" y2="610"/><ellipse cx="18" cy="621" fill="#000000" rx="3" ry="3" style="stroke:#000000;stroke-width:1.0;"/><text fill="#000000" font-family="sans-serif" font-size="14" lengthAdjust="spacing" textLength="112" x="27" y="627.5352">会員ランクコード</text><ellipse cx="18" cy="637.4883" fill="#000000" rx="3" ry="3" style="stroke:#000000;stroke-width:1.0;"/><text fill="#000000" font-family="sans-serif" font-size="14" lengthAdjust="spacing" textLength="42" x="27" y="644.0234">割引率</text><line style="stroke:#181818;stroke-width:0.5;" x1="8" x2="144" y1="650.9766" y2="650.9766"/></g><!--MD5=[1af42ccb3816cb79daac6ac9410562aa]
link 注文 to 会員--><g id="link_注文_会員"><path codeLine="39" d="M76,178.09 C76,178.09 76,221.73 76,221.73 " fill="none" id="注文-会員" style="stroke:#181818;stroke-width:1.0;stroke-dasharray:7.0,7.0;"/><line style="stroke:#181818;stroke-width:1.0;" x1="76" x2="76" y1="218.73" y2="229.73"/><ellipse cx="76" cy="218.73" fill="none" rx="4" ry="4" style="stroke:#181818;stroke-width:1.0;"/><line style="stroke:#181818;stroke-width:1.0;" x1="80" x2="72" y1="225.73" y2="225.73"/><line style="stroke:#181818;stroke-width:1.0;" x1="76" x2="70" y1="178.09" y2="170.09"/><line style="stroke:#181818;stroke-width:1.0;" x1="76" x2="82" y1="178.09" y2="170.09"/><line style="stroke:#181818;stroke-width:1.0;" x1="76" x2="76" y1="178.09" y2="170.09"/><ellipse cx="76" cy="184.09" fill="none" rx="4" ry="4" style="stroke:#181818;stroke-width:1.0;"/></g><!--MD5=[f66ffc1909df92abf2b44296df189a22]
link 会員 to 会員ランク--><g id="link_会員_会員ランク"><path codeLine="40" d="M76,385.04 C76,385.04 76,428.65 76,428.65 " fill="none" id="会員-会員ランク" style="stroke:#181818;stroke-width:1.0;stroke-dasharray:7.0,7.0;"/><line style="stroke:#181818;stroke-width:1.0;" x1="80" x2="72" y1="432.65" y2="432.65"/><line style="stroke:#181818;stroke-width:1.0;" x1="80" x2="72" y1="429.65" y2="429.65"/><line style="stroke:#181818;stroke-width:1.0;" x1="76" x2="76" y1="428.65" y2="436.65"/><line style="stroke:#181818;stroke-width:1.0;" x1="76" x2="70" y1="385.04" y2="377.04"/><line style="stroke:#181818;stroke-width:1.0;" x1="76" x2="82" y1="385.04" y2="377.04"/><line style="stroke:#181818;stroke-width:1.0;" x1="76" x2="76" y1="385.04" y2="377.04"/><ellipse cx="76" cy="391.04" fill="none" rx="4" ry="4" style="stroke:#181818;stroke-width:1.0;"/></g><!--MD5=[a76bcc854425a8c4cfe098fb6cc0e745]
link 会員ランク to 割引率--><g id="link_会員ランク_割引率"><path codeLine="41" d="M76,525.28 C76,525.28 76,570.81 76,570.81 " fill="none" id="会員ランク-割引率" style="stroke:#181818;stroke-width:1.0;stroke-dasharray:7.0,7.0;"/><line style="stroke:#181818;stroke-width:1.0;" x1="80" x2="72" y1="573.81" y2="573.81"/><line style="stroke:#181818;stroke-width:1.0;" x1="80" x2="72" y1="570.81" y2="570.81"/><line style="stroke:#181818;stroke-width:1.0;" x1="76" x2="76" y1="569.81" y2="577.81"/><line style="stroke:#181818;stroke-width:1.0;" x1="72" x2="80" y1="522.28" y2="522.28"/><line style="stroke:#181818;stroke-width:1.0;" x1="72" x2="80" y1="525.28" y2="525.28"/><line style="stroke:#181818;stroke-width:1.0;" x1="76" x2="76" y1="526.28" y2="518.28"/></g><!--MD5=[4707b7909ada8f826f6bac0b751aab7b]
@startuml

' hide the spot
' hide circle

' avoid problems with angled crows feet
skinparam linetype ortho

entity "注文" {
    *ID
    - -
    *購入者氏名
    *購入者番号
    *購入日
    *会員コード
    *店内利用フラグ
    *支払いフラグ
}

entity "会員" {
    *ID
    - -
    *会員コード
    *氏名
    *氏名_かな
    *電話番号
    *会員ランクコード
}

entity "会員ランク" {
    *ランクコード
    *ランク名
}

entity "割引率" {
    *会員ランクコード
    *割引率
}

注文 }o..o| 会員
会員 }o..|| 会員ランク
会員ランク ||..|| 割引率


@enduml

@startuml


skinparam linetype ortho

entity "注文" {
    *ID
    - -
    *購入者氏名
    *購入者番号
    *購入日
    *会員コード
    *店内利用フラグ
    *支払いフラグ
}

entity "会員" {
    *ID
    - -
    *会員コード
    *氏名
    *氏名_かな
    *電話番号
    *会員ランクコード
}

entity "会員ランク" {
    *ランクコード
    *ランク名
}

entity "割引率" {
    *会員ランクコード
    *割引率
}

注文 }o..o| 会員
会員 }o..|| 会員ランク
会員ランク ||..|| 割引率


@enduml

PlantUML version 1.2022.6(Wed Jun 22 02:34:49 JST 2022)
(GPL source distribution)
Java Runtime: OpenJDK Runtime Environment
JVM: OpenJDK 64-Bit Server VM
Default Encoding: UTF-8
Language: ja
Country: JP
--></g></svg>