<?xml version="1.0" encoding="UTF-8" standalone="no"?><svg xmlns="http://www.w3.org/2000/svg" xmlns:xlink="http://www.w3.org/1999/xlink" contentStyleType="text/css" height="442px" preserveAspectRatio="none" style="width:497px;height:442px;background:#FFFFFF;" version="1.1" viewBox="0 0 497 442" width="497px" zoomAndPan="magnify"><defs/><g><!--MD5=[e6c131967da0181654129b9ee700e883]
class ユーザー--><g id="elem_ユーザー"><rect codeLine="2" fill="#F1F1F1" height="80.9766" id="ユーザー" rx="2.5" ry="2.5" style="stroke:#181818;stroke-width:0.5;" width="88" x="266.5" y="7"/><ellipse cx="281.5" cy="23" fill="#ADD1B2" rx="11" ry="11" style="stroke:#181818;stroke-width:1.0;"/><path d="M285.1143,29.5 L277.3945,29.5 L277.3945,17.1069 L285.1143,17.1069 L285.1143,19.2651 L279.8433,19.2651 L279.8433,21.938 L284.6162,21.938 L284.6162,24.0962 L279.8433,24.0962 L279.8433,27.3418 L285.1143,27.3418 Z " fill="#000000"/><text fill="#000000" font-family="sans-serif" font-size="14" lengthAdjust="spacing" textLength="56" x="295.5" y="28.291">ユーザー</text><line style="stroke:#181818;stroke-width:0.5;" x1="267.5" x2="353.5" y1="39" y2="39"/><ellipse cx="277.5" cy="50" fill="#000000" rx="3" ry="3" style="stroke:#000000;stroke-width:1.0;"/><text fill="#000000" font-family="sans-serif" font-size="14" lengthAdjust="spacing" textLength="14" x="286.5" y="56.5352">ID</text><line style="stroke:#181818;stroke-width:1.0;" x1="267.5" x2="353.5" y1="63.4883" y2="63.4883"/><ellipse cx="277.5" cy="74.4883" fill="#000000" rx="3" ry="3" style="stroke:#000000;stroke-width:1.0;"/><text fill="#000000" font-family="sans-serif" font-size="14" lengthAdjust="spacing" textLength="42" x="286.5" y="81.0234">表示名</text></g><!--MD5=[6d9619ef98b074b90a2088c58bfec945]
class ワークスペース--><g id="elem_ワークスペース"><rect codeLine="8" fill="#F1F1F1" height="80.9766" id="ワークスペース" rx="2.5" ry="2.5" style="stroke:#181818;stroke-width:0.5;" width="138" x="38.5" y="329.5"/><ellipse cx="57.1" cy="345.5" fill="#ADD1B2" rx="11" ry="11" style="stroke:#181818;stroke-width:1.0;"/><path d="M60.7143,352 L52.9945,352 L52.9945,339.6069 L60.7143,339.6069 L60.7143,341.7651 L55.4433,341.7651 L55.4433,344.438 L60.2162,344.438 L60.2162,346.5962 L55.4433,346.5962 L55.4433,349.8418 L60.7143,349.8418 Z " fill="#000000"/><text fill="#000000" font-family="sans-serif" font-size="14" lengthAdjust="spacing" textLength="98" x="71.9" y="350.791">ワークスペース</text><line style="stroke:#181818;stroke-width:0.5;" x1="39.5" x2="175.5" y1="361.5" y2="361.5"/><ellipse cx="49.5" cy="372.5" fill="#000000" rx="3" ry="3" style="stroke:#000000;stroke-width:1.0;"/><text fill="#000000" font-family="sans-serif" font-size="14" lengthAdjust="spacing" textLength="14" x="58.5" y="379.0352">ID</text><line style="stroke:#181818;stroke-width:1.0;" x1="39.5" x2="175.5" y1="385.9883" y2="385.9883"/><ellipse cx="49.5" cy="396.9883" fill="#000000" rx="3" ry="3" style="stroke:#000000;stroke-width:1.0;"/><text fill="#000000" font-family="sans-serif" font-size="14" lengthAdjust="spacing" textLength="112" x="58.5" y="403.5234">ワークスペース名</text></g><!--MD5=[241f436a9c064b49cd9b245a98aa7802]
class チャネル--><g id="elem_チャネル"><rect codeLine="14" fill="#F1F1F1" height="97.4648" id="チャネル" rx="2.5" ry="2.5" style="stroke:#181818;stroke-width:0.5;" width="138" x="215.5" y="321.5"/><ellipse cx="253" cy="337.5" fill="#ADD1B2" rx="11" ry="11" style="stroke:#181818;stroke-width:1.0;"/><path d="M256.6143,344 L248.8945,344 L248.8945,331.6069 L256.6143,331.6069 L256.6143,333.7651 L251.3433,333.7651 L251.3433,336.438 L256.1162,336.438 L256.1162,338.5962 L251.3433,338.5962 L251.3433,341.8418 L256.6143,341.8418 Z " fill="#000000"/><text fill="#000000" font-family="sans-serif" font-size="14" lengthAdjust="spacing" textLength="56" x="272" y="342.791">チャネル</text><line style="stroke:#181818;stroke-width:0.5;" x1="216.5" x2="352.5" y1="353.5" y2="353.5"/><ellipse cx="226.5" cy="364.5" fill="#000000" rx="3" ry="3" style="stroke:#000000;stroke-width:1.0;"/><text fill="#000000" font-family="sans-serif" font-size="14" lengthAdjust="spacing" textLength="14" x="235.5" y="371.0352">ID</text><line style="stroke:#181818;stroke-width:1.0;" x1="216.5" x2="352.5" y1="377.9883" y2="377.9883"/><ellipse cx="226.5" cy="388.9883" fill="#000000" rx="3" ry="3" style="stroke:#000000;stroke-width:1.0;"/><text fill="#000000" font-family="sans-serif" font-size="14" lengthAdjust="spacing" textLength="112" x="235.5" y="395.5234">ワークスペースID</text><ellipse cx="226.5" cy="405.4766" fill="#000000" rx="3" ry="3" style="stroke:#000000;stroke-width:1.0;"/><text fill="#000000" font-family="sans-serif" font-size="14" lengthAdjust="spacing" textLength="70" x="235.5" y="412.0117">チャネル名</text></g><!--MD5=[e1add7f860fe63d15b6da894611f11a9]
class ワークスペース_ユーザー--><g id="elem_ワークスペース_ユーザー"><rect codeLine="21" fill="#F1F1F1" height="97.4648" id="ワークスペース_ユーザー" rx="2.5" ry="2.5" style="stroke:#181818;stroke-width:0.5;" width="193" x="7" y="148"/><ellipse cx="22" cy="164" fill="#ADD1B2" rx="11" ry="11" style="stroke:#181818;stroke-width:1.0;"/><path d="M25.6143,170.5 L17.8945,170.5 L17.8945,158.1069 L25.6143,158.1069 L25.6143,160.2651 L20.3433,160.2651 L20.3433,162.938 L25.1162,162.938 L25.1162,165.0962 L20.3433,165.0962 L20.3433,168.3418 L25.6143,168.3418 Z " fill="#000000"/><text fill="#000000" font-family="sans-serif" font-size="14" lengthAdjust="spacing" textLength="161" x="36" y="169.291">ワークスペース_ユーザー</text><line style="stroke:#181818;stroke-width:0.5;" x1="8" x2="199" y1="180" y2="180"/><ellipse cx="18" cy="191" fill="#000000" rx="3" ry="3" style="stroke:#000000;stroke-width:1.0;"/><text fill="#000000" font-family="sans-serif" font-size="14" lengthAdjust="spacing" textLength="14" x="27" y="197.5352">ID</text><line style="stroke:#181818;stroke-width:1.0;" x1="8" x2="199" y1="204.4883" y2="204.4883"/><ellipse cx="18" cy="215.4883" fill="#000000" rx="3" ry="3" style="stroke:#000000;stroke-width:1.0;"/><text fill="#000000" font-family="sans-serif" font-size="14" lengthAdjust="spacing" textLength="112" x="27" y="222.0234">ワーススペースID</text><ellipse cx="18" cy="231.9766" fill="#000000" rx="3" ry="3" style="stroke:#000000;stroke-width:1.0;"/><text fill="#000000" font-family="sans-serif" font-size="14" lengthAdjust="spacing" textLength="70" x="27" y="238.5117">ユーザーID</text></g><!--MD5=[842dee1c32b05c3cde3fa1441a295430]
class チャネル_ユーザー--><g id="elem_チャネル_ユーザー"><rect codeLine="28" fill="#F1F1F1" height="97.4648" id="チャネル_ユーザー" rx="2.5" ry="2.5" style="stroke:#181818;stroke-width:0.5;" width="151" x="235" y="148"/><ellipse cx="250" cy="164" fill="#ADD1B2" rx="11" ry="11" style="stroke:#181818;stroke-width:1.0;"/><path d="M253.6143,170.5 L245.8945,170.5 L245.8945,158.1069 L253.6143,158.1069 L253.6143,160.2651 L248.3433,160.2651 L248.3433,162.938 L253.1162,162.938 L253.1162,165.0962 L248.3433,165.0962 L248.3433,168.3418 L253.6143,168.3418 Z " fill="#000000"/><text fill="#000000" font-family="sans-serif" font-size="14" lengthAdjust="spacing" textLength="119" x="264" y="169.291">チャネル_ユーザー</text><line style="stroke:#181818;stroke-width:0.5;" x1="236" x2="385" y1="180" y2="180"/><ellipse cx="246" cy="191" fill="#000000" rx="3" ry="3" style="stroke:#000000;stroke-width:1.0;"/><text fill="#000000" font-family="sans-serif" font-size="14" lengthAdjust="spacing" textLength="14" x="255" y="197.5352">ID</text><line style="stroke:#181818;stroke-width:1.0;" x1="236" x2="385" y1="204.4883" y2="204.4883"/><ellipse cx="246" cy="215.4883" fill="#000000" rx="3" ry="3" style="stroke:#000000;stroke-width:1.0;"/><text fill="#000000" font-family="sans-serif" font-size="14" lengthAdjust="spacing" textLength="70" x="255" y="222.0234">チャネルID</text><ellipse cx="246" cy="231.9766" fill="#000000" rx="3" ry="3" style="stroke:#000000;stroke-width:1.0;"/><text fill="#000000" font-family="sans-serif" font-size="14" lengthAdjust="spacing" textLength="70" x="255" y="238.5117">ユーザーID</text></g><!--MD5=[f30c654166262c61ba08993d19e88f02]
class メッセージ--><g id="elem_メッセージ"><rect codeLine="35" fill="#F1F1F1" height="130.4414" id="メッセージ" rx="2.5" ry="2.5" style="stroke:#181818;stroke-width:0.5;" width="102" x="388.5" y="305"/><ellipse cx="403.5" cy="321" fill="#ADD1B2" rx="11" ry="11" style="stroke:#181818;stroke-width:1.0;"/><path d="M407.1143,327.5 L399.3945,327.5 L399.3945,315.1069 L407.1143,315.1069 L407.1143,317.2651 L401.8433,317.2651 L401.8433,319.938 L406.6162,319.938 L406.6162,322.0962 L401.8433,322.0962 L401.8433,325.3418 L407.1143,325.3418 Z " fill="#000000"/><text fill="#000000" font-family="sans-serif" font-size="14" lengthAdjust="spacing" textLength="70" x="417.5" y="326.291">メッセージ</text><line style="stroke:#181818;stroke-width:0.5;" x1="389.5" x2="489.5" y1="337" y2="337"/><ellipse cx="399.5" cy="348" fill="#000000" rx="3" ry="3" style="stroke:#000000;stroke-width:1.0;"/><text fill="#000000" font-family="sans-serif" font-size="14" lengthAdjust="spacing" textLength="14" x="408.5" y="354.5352">ID</text><line style="stroke:#181818;stroke-width:1.0;" x1="389.5" x2="489.5" y1="361.4883" y2="361.4883"/><ellipse cx="399.5" cy="372.4883" fill="#000000" rx="3" ry="3" style="stroke:#000000;stroke-width:1.0;"/><text fill="#000000" font-family="sans-serif" font-size="14" lengthAdjust="spacing" textLength="70" x="408.5" y="379.0234">ユーザーID</text><ellipse cx="399.5" cy="388.9766" fill="#000000" rx="3" ry="3" style="stroke:#000000;stroke-width:1.0;"/><text fill="#000000" font-family="sans-serif" font-size="14" lengthAdjust="spacing" textLength="70" x="408.5" y="395.5117">チャネルID</text><ellipse cx="399.5" cy="405.4648" fill="#000000" rx="3" ry="3" style="stroke:#000000;stroke-width:1.0;"/><text fill="#000000" font-family="sans-serif" font-size="14" lengthAdjust="spacing" textLength="28" x="408.5" y="412">本文</text><ellipse cx="399.5" cy="421.9531" fill="#000000" rx="3" ry="3" style="stroke:#000000;stroke-width:1.0;"/><text fill="#000000" font-family="sans-serif" font-size="14" lengthAdjust="spacing" textLength="70" x="408.5" y="428.4883">スレッドID</text></g><!--MD5=[268e3da1293a98a6bd4257020559110e]
link ユーザー to ワークスペース_ユーザー--><g id="link_ユーザー_ワークスペース_ユーザー"><path codeLine="44" d="M259.65,84.61 C234.86,102.22 204.57,123.73 177.28,143.1 " fill="none" id="ユーザー-ワークスペース_ユーザー" style="stroke:#181818;stroke-width:1.0;"/><line style="stroke:#181818;stroke-width:1.0;" x1="176.9462" x2="173.8902" y1="143.3531" y2="152.8747"/><line style="stroke:#181818;stroke-width:1.0;" x1="176.9462" x2="166.9498" y1="143.3531" y2="143.0853"/><line style="stroke:#181818;stroke-width:1.0;" x1="176.9462" x2="170.42" y1="143.3531" y2="147.98"/><line style="stroke:#181818;stroke-width:1.0;" x1="180.8912" x2="176.2643" y1="145.4595" y2="138.9332"/><line style="stroke:#181818;stroke-width:1.0;" x1="260.7721" x2="265.4085" y1="78.9085" y2="85.4279"/><line style="stroke:#181818;stroke-width:1.0;" x1="258.3272" x2="262.9636" y1="80.6471" y2="87.1666"/><line style="stroke:#181818;stroke-width:1.0;" x1="259.8305" x2="266.35" y1="84.4864" y2="79.85"/></g><!--MD5=[d5c5a039b3aca3198d83b3a42782fa8a]
link ワークスペース_ユーザー to ワークスペース--><g id="link_ワークスペース_ユーザー_ワークスペース"><path codeLine="45" d="M104.81,253.51 C105.32,275.36 105.89,300.16 106.38,321.15 " fill="none" id="ワークスペース_ユーザー-ワークスペース" style="stroke:#181818;stroke-width:1.0;"/><line style="stroke:#181818;stroke-width:1.0;" x1="106.3843" x2="112.5684" y1="321.3022" y2="329.1608"/><line style="stroke:#181818;stroke-width:1.0;" x1="106.3843" x2="100.5716" y1="321.3022" y2="329.4392"/><line style="stroke:#181818;stroke-width:1.0;" x1="106.3843" x2="106.57" y1="321.3022" y2="329.3"/><line style="stroke:#181818;stroke-width:1.0;" x1="110.3368" x2="102.339" y1="319.2099" y2="319.3955"/><line style="stroke:#181818;stroke-width:1.0;" x1="100.7112" x2="108.7087" y1="249.3687" y2="249.1688"/><line style="stroke:#181818;stroke-width:1.0;" x1="100.7862" x2="108.7837" y1="252.3678" y2="252.1678"/><line style="stroke:#181818;stroke-width:1.0;" x1="104.8099" x2="104.61" y1="253.2675" y2="245.27"/></g><!--MD5=[dde6bdd017142ee94962ee5a604fdf55]
link ユーザー to チャネル_ユーザー--><g id="link_ユーザー_チャネル_ユーザー"><path codeLine="46" d="M310.5,96.68 C310.5,110.41 310.5,125.49 310.5,139.64 " fill="none" id="ユーザー-チャネル_ユーザー" style="stroke:#181818;stroke-width:1.0;"/><line style="stroke:#181818;stroke-width:1.0;" x1="310.5" x2="316.5" y1="139.84" y2="147.84"/><line style="stroke:#181818;stroke-width:1.0;" x1="310.5" x2="304.5" y1="139.84" y2="147.84"/><line style="stroke:#181818;stroke-width:1.0;" x1="310.5" x2="310.5" y1="139.84" y2="147.84"/><line style="stroke:#181818;stroke-width:1.0;" x1="314.5" x2="306.5" y1="137.84" y2="137.84"/><line style="stroke:#181818;stroke-width:1.0;" x1="306.5" x2="314.5" y1="92.28" y2="92.28"/><line style="stroke:#181818;stroke-width:1.0;" x1="306.5" x2="314.5" y1="95.28" y2="95.28"/><line style="stroke:#181818;stroke-width:1.0;" x1="310.5" x2="310.5" y1="96.28" y2="88.28"/></g><!--MD5=[85e7c0f520dbcdf9b8c91c36d31f744d]
link チャネル_ユーザー to チャネル--><g id="link_チャネル_ユーザー_チャネル"><path codeLine="47" d="M302.05,253.24 C299.13,272.52 295.85,294.11 292.93,313.38 " fill="none" id="チャネル_ユーザー-チャネル" style="stroke:#181818;stroke-width:1.0;"/><line style="stroke:#181818;stroke-width:1.0;" x1="296.2544" x2="288.3448" y1="318.1248" y2="316.9256"/><line style="stroke:#181818;stroke-width:1.0;" x1="296.7042" x2="288.7946" y1="315.1587" y2="313.9595"/><line style="stroke:#181818;stroke-width:1.0;" x1="292.8993" x2="291.7" y1="313.5704" y2="321.48"/><line style="stroke:#181818;stroke-width:1.0;" x1="302.0607" x2="297.3278" y1="253.1796" y2="244.3705"/><line style="stroke:#181818;stroke-width:1.0;" x1="302.0607" x2="309.1922" y1="253.1796" y2="246.1695"/><line style="stroke:#181818;stroke-width:1.0;" x1="302.0607" x2="303.26" y1="253.1796" y2="245.27"/><line style="stroke:#181818;stroke-width:1.0;" x1="297.8061" x2="305.7157" y1="254.5574" y2="255.7566"/></g><!--MD5=[5eeabae42de08c63ee46e0ceb03e9314]
link ユーザー to メッセージ--><g id="link_ユーザー_メッセージ"><path codeLine="48" d="M360.52,90.79 C376.69,107.05 393.1,126.83 403.5,148 C426.17,194.15 435.02,251.61 438.29,296.37 " fill="none" id="ユーザー-メッセージ" style="stroke:#181818;stroke-width:1.0;"/><line style="stroke:#181818;stroke-width:1.0;" x1="438.2865" x2="444.8161" y1="296.5885" y2="304.1623"/><line style="stroke:#181818;stroke-width:1.0;" x1="438.2865" x2="432.8439" y1="296.5885" y2="304.9777"/><line style="stroke:#181818;stroke-width:1.0;" x1="438.2865" x2="438.83" y1="296.5885" y2="304.57"/><ellipse cx="437.8788" cy="290.6024" fill="none" rx="4" ry="4" style="stroke:#181818;stroke-width:1.0;"/><line style="stroke:#181818;stroke-width:1.0;" x1="354.6471" x2="360.2466" y1="90.6266" y2="84.9129"/><line style="stroke:#181818;stroke-width:1.0;" x1="356.7898" x2="362.3892" y1="92.7264" y2="87.0126"/><line style="stroke:#181818;stroke-width:1.0;" x1="360.3037" x2="354.59" y1="90.5694" y2="84.97"/></g><!--MD5=[bbc448de9f2c723d6671e10fbe50ccd5]
link ワークスペース to チャネル--><g id="link_ワークスペース_チャネル"><path codeLine="49" d="M184.82,370 C192.3,370 199.79,370 207.28,370 " fill="none" id="ワークスペース-チャネル" style="stroke:#181818;stroke-width:1.0;"/><line style="stroke:#181818;stroke-width:1.0;" x1="207.4" x2="215.4" y1="370" y2="364"/><line style="stroke:#181818;stroke-width:1.0;" x1="207.4" x2="215.4" y1="370" y2="376"/><line style="stroke:#181818;stroke-width:1.0;" x1="207.4" x2="215.4" y1="370" y2="370"/><ellipse cx="201.4" cy="370" fill="none" rx="4" ry="4" style="stroke:#181818;stroke-width:1.0;"/><line style="stroke:#181818;stroke-width:1.0;" x1="180.64" x2="180.64" y1="374" y2="366"/><line style="stroke:#181818;stroke-width:1.0;" x1="183.64" x2="183.64" y1="374" y2="366"/><line style="stroke:#181818;stroke-width:1.0;" x1="184.64" x2="176.64" y1="370" y2="370"/></g><!--MD5=[fdfe3e174a190d89f697b36070caca32]
link チャネル to メッセージ--><g id="link_チャネル_メッセージ"><path codeLine="50" d="M361.71,370 C367.84,370 373.97,370 380.09,370 " fill="none" id="チャネル-メッセージ" style="stroke:#181818;stroke-width:1.0;"/><line style="stroke:#181818;stroke-width:1.0;" x1="380.45" x2="388.45" y1="370" y2="364"/><line style="stroke:#181818;stroke-width:1.0;" x1="380.45" x2="388.45" y1="370" y2="376"/><line style="stroke:#181818;stroke-width:1.0;" x1="380.45" x2="388.45" y1="370" y2="370"/><ellipse cx="374.45" cy="370" fill="none" rx="4" ry="4" style="stroke:#181818;stroke-width:1.0;"/><line style="stroke:#181818;stroke-width:1.0;" x1="357.52" x2="357.52" y1="374" y2="366"/><line style="stroke:#181818;stroke-width:1.0;" x1="360.52" x2="360.52" y1="374" y2="366"/><line style="stroke:#181818;stroke-width:1.0;" x1="361.52" x2="353.52" y1="370" y2="370"/></g><!--MD5=[b52f3bf1971fcf43b8e8702559c42bd2]
@startuml

entity "ユーザー" {
    *ID
    - -
    *表示名
}

entity "ワークスペース" {
    *ID
    - -
    *ワークスペース名
}

entity "チャネル" {
    *ID
    - -
    *ワークスペースID
    *チャネル名
}

entity "ワークスペース_ユーザー" {
    *ID
    - -
    *ワーススペースID
    *ユーザーID
}

entity "チャネル_ユーザー" {
    *ID
    - -
    *チャネルID
    *ユーザーID
}

entity "メッセージ" {
    *ID
    - -
    *ユーザーID
    *チャネルID
    *本文
    *スレッドID
}

ユーザー ||-d-|{ ワークスペース_ユーザー
ワークスペース_ユーザー ||-d-|{ ワークスペース
ユーザー ||-d-|{ チャネル_ユーザー
チャネル_ユーザー }|-d-|| チャネル
ユーザー ||-d-o{ メッセージ
ワークスペース ||-r-o{ チャネル
チャネル ||-r-o{ メッセージ

@enduml

PlantUML version 1.2022.6(Wed Jun 22 02:34:49 JST 2022)
(GPL source distribution)
Java Runtime: OpenJDK Runtime Environment
JVM: OpenJDK 64-Bit Server VM
Default Encoding: UTF-8
Language: ja
Country: JP
--></g></svg>